mtllib MFCamera.mtl
o MFCamera
v -0.299585 -0.245434 0.500000
v 0.299585 -0.245434 0.500000
v 0.299585 0.245434 0.500000
v -0.299585 0.245434 0.500000
v 0.299585 -0.245434 -0.500000
v -0.299585 -0.245434 -0.500000
v -0.299585 0.245434 -0.500000
v 0.299585 0.245434 -0.500000
v -0.299585 0.500000 0.245434
v 0.299585 0.500000 0.245434
v 0.299585 0.500000 -0.245434
v -0.299585 0.500000 -0.245434
v -0.299585 -0.500000 -0.245434
v 0.299585 -0.500000 -0.245434
v 0.299585 -0.500000 0.245434
v -0.299585 -0.500000 0.245434
v -0.299585 0.337078 -0.489817
v -0.299585 0.408356 -0.459269
v -0.299585 0.459269 -0.408356
v -0.299585 0.489817 -0.337078
v 0.299585 0.337078 -0.489817
v 0.299585 0.408356 -0.459269
v 0.299585 0.459269 -0.408356
v 0.299585 0.489817 -0.337078
v 0.299585 0.337078 0.489817
v 0.299585 0.408356 0.459269
v 0.299585 0.459269 0.408356
v 0.299585 0.489817 0.337078
v -0.299585 0.337078 0.489817
v -0.299585 0.408356 0.459269
v -0.299585 0.459269 0.408356
v -0.299585 0.489817 0.337078
v -0.299585 -0.337078 0.489817
v -0.299585 -0.408356 0.459269
v -0.299585 -0.459269 0.408356
v -0.299585 -0.489817 0.337078
v 0.299585 -0.337078 0.489817
v 0.299585 -0.408356 0.459269
v 0.299585 -0.459269 0.408356
v 0.299585 -0.489817 0.337078
v 0.299585 -0.337078 -0.489817
v 0.299585 -0.408356 -0.459269
v 0.299585 -0.459269 -0.408356
v 0.299585 -0.489817 -0.337078
v -0.299585 -0.337078 -0.489817
v -0.299585 -0.408356 -0.459269
v -0.299585 -0.459269 -0.408356
v -0.299585 -0.489817 -0.337078
v -0.352973 -0.226546 0.461521
v 0.352973 -0.226546 0.461521
v 0.352973 0.226546 0.461521
v -0.352973 0.226546 0.461521
v 0.352973 -0.226546 -0.461521
v -0.352973 -0.226546 -0.461521
v -0.352973 0.226546 -0.461521
v 0.352973 0.226546 -0.461521
v -0.352973 0.461521 0.226546
v 0.352973 0.461521 0.226546
v 0.352973 0.461521 -0.226546
v -0.352973 0.461521 -0.226546
v -0.352973 -0.461521 -0.226546
v 0.352973 -0.461521 -0.226546
v 0.352973 -0.461521 0.226546
v -0.352973 -0.461521 0.226546
v -0.352973 0.311137 -0.452122
v -0.352973 0.376930 -0.423925
v -0.352973 0.423925 -0.376930
v -0.352973 0.452122 -0.311137
v 0.352973 0.311137 -0.452122
v 0.352973 0.376930 -0.423925
v 0.352973 0.423925 -0.376930
v 0.352973 0.452122 -0.311137
v 0.352973 0.311137 0.452122
v 0.352973 0.376930 0.423925
v 0.352973 0.423925 0.376930
v 0.352973 0.452122 0.311137
v -0.352973 0.311137 0.452122
v -0.352973 0.376930 0.423925
v -0.352973 0.423925 0.376930
v -0.352973 0.452122 0.311137
v -0.352973 -0.311137 0.452122
v -0.352973 -0.376930 0.423925
v -0.352973 -0.423925 0.376930
v -0.352973 -0.452122 0.311137
v 0.352973 -0.311137 0.452122
v 0.352973 -0.376930 0.423925
v 0.352973 -0.423925 0.376930
v 0.352973 -0.452122 0.311137
v 0.352973 -0.311137 -0.452122
v 0.352973 -0.376930 -0.423925
v 0.352973 -0.423925 -0.376930
v 0.352973 -0.452122 -0.311137
v -0.352973 -0.311137 -0.452122
v -0.352973 -0.376930 -0.423925
v -0.352973 -0.423925 -0.376930
v -0.352973 -0.452122 -0.311137
v -0.079688 0.343420 -0.293361
v -0.079688 0.422021 -0.103602
v -0.079688 0.611780 -0.025001
v -0.079688 0.801540 -0.103602
v -0.079688 0.880140 -0.293361
v -0.079688 0.801540 -0.483120
v -0.079688 0.611780 -0.561721
v -0.079688 0.422021 -0.483120
v 0.079688 0.343420 -0.293361
v 0.079688 0.422021 -0.103602
v 0.079688 0.611780 -0.025001
v 0.079688 0.801540 -0.103602
v 0.079688 0.880140 -0.293361
v 0.079688 0.801540 -0.483120
v 0.079688 0.611780 -0.561721
v 0.079688 0.422021 -0.483120
v 0.081862 0.875838 0.273159
v 0.081854 0.796959 0.463591
v 0.081834 0.606527 0.542470
v 0.081814 0.416096 0.463591
v 0.081806 0.337216 0.273159
v 0.081814 0.416096 0.082728
v 0.081834 0.606527 0.003849
v 0.081854 0.796959 0.082728
v -0.081806 0.876024 0.273159
v -0.081814 0.797145 0.463591
v -0.081834 0.606713 0.542470
v -0.081854 0.416282 0.463591
v -0.081863 0.337402 0.273159
v -0.081854 0.416282 0.082728
v -0.081834 0.606713 0.003849
v -0.081814 0.797145 0.082728
v -0.233349 -0.157070 -0.591649
v 0.233349 -0.157070 -0.591649
v 0.233349 0.192256 -0.591649
v -0.233349 0.192256 -0.591649
v -0.205391 -0.136143 -0.466179
v 0.205391 -0.136143 -0.466179
v 0.205391 0.171328 -0.466179
v -0.205391 0.171328 -0.466179
v 0.315933 -0.273112 -0.799228
v -0.315933 -0.273112 -0.799228
v -0.315933 0.308297 -0.799228
v 0.315933 0.308297 -0.799228
v -0.079688 0.373270 -0.293361
v -0.079688 0.443128 -0.124709
v -0.079688 0.611780 -0.054851
v -0.079688 0.780432 -0.124709
v -0.079688 0.850290 -0.293361
v -0.079688 0.780432 -0.462013
v -0.079688 0.611780 -0.531871
v -0.079688 0.443128 -0.462013
v 0.079688 0.373270 -0.293361
v 0.079688 0.443128 -0.124709
v 0.079688 0.611780 -0.054851
v 0.079688 0.780432 -0.124709
v 0.079688 0.850290 -0.293361
v 0.079688 0.780432 -0.462013
v 0.079688 0.611780 -0.531871
v 0.079688 0.443128 -0.462013
v 0.081859 0.845883 0.273159
v 0.081852 0.775777 0.442409
v 0.081834 0.606527 0.512514
v 0.081816 0.437278 0.442409
v 0.081809 0.367172 0.273159
v 0.081816 0.437278 0.103910
v 0.081834 0.606527 0.033804
v 0.081852 0.775777 0.103910
v -0.081809 0.846068 0.273159
v -0.081817 0.775963 0.442409
v -0.081834 0.606713 0.512514
v -0.081852 0.437464 0.442409
v -0.081859 0.367358 0.273159
v -0.081852 0.437464 0.103910
v -0.081834 0.606713 0.033804
v -0.081817 0.775963 0.103910
v 0.066105 0.443129 -0.462013
v 0.066105 0.611781 -0.531871
v 0.066105 0.780433 -0.462013
v 0.066105 0.850291 -0.293361
v 0.066105 0.780433 -0.124709
v 0.066105 0.611781 -0.054851
v 0.066105 0.443129 -0.124709
v 0.066105 0.373271 -0.293361
v 0.068277 0.845883 0.273159
v 0.068269 0.775778 0.442409
v 0.068251 0.606528 0.512514
v 0.068234 0.437278 0.442409
v 0.068226 0.367173 0.273159
v 0.068234 0.437279 0.103910
v 0.068251 0.606528 0.033804
v 0.068269 0.775778 0.103910
v -0.053437 0.373269 -0.293361
v -0.053437 0.443127 -0.124709
v -0.053437 0.611779 -0.054851
v -0.053437 0.780431 -0.124709
v -0.053437 0.850289 -0.293361
v -0.053437 0.780431 -0.462013
v -0.053437 0.611779 -0.531871
v -0.053437 0.443127 -0.462013
v -0.055566 0.775962 0.103910
v -0.055584 0.606712 0.033804
v -0.055602 0.437462 0.103910
v -0.055609 0.367357 0.273159
v -0.055602 0.437462 0.442409
v -0.055584 0.606712 0.512514
v -0.055566 0.775962 0.442409
v -0.055559 0.846067 0.273159
v 0.066105 0.509457 -0.395685
v 0.066105 0.611781 -0.438069
v 0.066105 0.714105 -0.395685
v 0.066105 0.756489 -0.293361
v 0.066105 0.714105 -0.191037
v 0.066105 0.611781 -0.148653
v 0.066105 0.509457 -0.191037
v 0.066105 0.467073 -0.293361
v 0.068267 0.751749 0.273159
v 0.068262 0.709215 0.375846
v 0.068251 0.606528 0.418380
v 0.068241 0.503842 0.375846
v 0.068236 0.461308 0.273159
v 0.068241 0.503842 0.170473
v 0.068251 0.606528 0.127939
v 0.068262 0.709215 0.170473
v -0.053437 0.467071 -0.293361
v -0.053437 0.509455 -0.191037
v -0.053437 0.611779 -0.148653
v -0.053437 0.714103 -0.191037
v -0.053437 0.756487 -0.293361
v -0.053437 0.714103 -0.395685
v -0.053437 0.611779 -0.438068
v -0.053437 0.509455 -0.395685
v -0.055573 0.709399 0.170473
v -0.055584 0.606712 0.127939
v -0.055595 0.504026 0.170473
v -0.055599 0.461492 0.273159
v -0.055595 0.504026 0.375846
v -0.055584 0.606712 0.418380
v -0.055573 0.709398 0.375846
v -0.055569 0.751932 0.273159
v 0.079342 0.509457 -0.395685
v 0.079342 0.611780 -0.438069
v 0.079342 0.714104 -0.395685
v 0.079342 0.756488 -0.293361
v 0.079342 0.714104 -0.191037
v 0.079342 0.611780 -0.148653
v 0.079342 0.509457 -0.191037
v 0.079342 0.467073 -0.293361
v 0.081503 0.751748 0.273159
v 0.081499 0.709214 0.375846
v 0.081488 0.606527 0.418380
v 0.081477 0.503841 0.375846
v 0.081473 0.461307 0.273159
v 0.081477 0.503841 0.170473
v 0.081488 0.606527 0.127939
v 0.081499 0.709214 0.170473
v -0.070659 0.467072 -0.293361
v -0.070659 0.509456 -0.191037
v -0.070659 0.611780 -0.148653
v -0.070659 0.714104 -0.191037
v -0.070659 0.756488 -0.293361
v -0.070659 0.714104 -0.395685
v -0.070659 0.611780 -0.438068
v -0.070659 0.509456 -0.395685
v -0.072795 0.709399 0.170473
v -0.072806 0.606713 0.127939
v -0.072817 0.504027 0.170473
v -0.072821 0.461492 0.273159
v -0.072817 0.504027 0.375846
v -0.072806 0.606713 0.418380
v -0.072795 0.709399 0.375846
v -0.072791 0.751933 0.273159
v 0.276172 -0.236526 -0.799228
v -0.276172 -0.236526 -0.799228
v -0.276172 0.271711 -0.799228
v 0.276172 0.271711 -0.799228
v 0.276172 -0.236526 -0.749918
v -0.276172 -0.236526 -0.749918
v -0.276172 0.271711 -0.749918
v 0.276172 0.271711 -0.749918
vt 0.736820 0.652259
vt 0.571827 0.652232
vt 0.571877 0.517493
vt 0.736864 0.517516
vt 0.482507 0.649988
vt 0.482483 0.485001
vt 0.347741 0.485045
vt 0.347768 0.650038
vt 0.069892 0.741977
vt 0.046762 0.744547
vt 0.028772 0.752257
vt 0.015923 0.765107
vt 0.008213 0.783096
vt 0.005643 0.806225
vt 0.005643 0.930110
vt 0.008213 0.953239
vt 0.015923 0.971228
vt 0.028772 0.984077
vt 0.046761 0.991787
vt 0.069891 0.994357
vt 0.193775 0.994357
vt 0.216904 0.991787
vt 0.234894 0.984077
vt 0.247743 0.971228
vt 0.255453 0.953239
vt 0.258023 0.930109
vt 0.258022 0.806225
vt 0.255453 0.783096
vt 0.247743 0.765107
vt 0.234894 0.752257
vt 0.216904 0.744547
vt 0.193775 0.741978
vt 0.008859 0.653581
vt 0.011429 0.676711
vt 0.019138 0.694700
vt 0.031988 0.707550
vt 0.049977 0.715260
vt 0.073106 0.717829
vt 0.196991 0.717829
vt 0.220120 0.715259
vt 0.238109 0.707549
vt 0.250959 0.694700
vt 0.258668 0.676711
vt 0.261238 0.653582
vt 0.261238 0.529697
vt 0.258668 0.506568
vt 0.250958 0.488579
vt 0.238109 0.475730
vt 0.220120 0.468020
vt 0.196990 0.465450
vt 0.073106 0.465450
vt 0.049977 0.468020
vt 0.031988 0.475730
vt 0.019138 0.488579
vt 0.011429 0.506568
vt 0.008859 0.529697
vt 0.688588 0.915925
vt 0.523595 0.915897
vt 0.523645 0.781158
vt 0.688633 0.781182
vt 0.466723 0.867694
vt 0.301730 0.867666
vt 0.301781 0.732927
vt 0.466768 0.732951
vt 0.322695 0.485292
vt 0.322654 0.649887
vt 0.347768 0.650038
vt 0.347741 0.485045
vt 0.301394 0.484377
vt 0.301316 0.650744
vt 0.322654 0.649887
vt 0.322695 0.485292
vt 0.281473 0.484362
vt 0.281350 0.650768
vt 0.301316 0.650744
vt 0.301394 0.484377
vt 0.688475 0.756066
vt 0.523896 0.756118
vt 0.522985 0.734823
vt 0.689326 0.734727
vt 0.688633 0.781182
vt 0.523645 0.781158
vt 0.523896 0.756118
vt 0.688475 0.756066
vt 0.572128 0.492452
vt 0.736707 0.492401
vt 0.736864 0.517516
vt 0.571877 0.517493
vt 0.571216 0.471157
vt 0.737558 0.471061
vt 0.736707 0.492401
vt 0.572128 0.492452
vt 0.522889 0.962350
vt 0.689257 0.962271
vt 0.689272 0.982193
vt 0.522866 0.982315
vt 0.523746 0.941012
vt 0.688341 0.940971
vt 0.689257 0.962271
vt 0.522889 0.962350
vt 0.523595 0.915897
vt 0.688588 0.915925
vt 0.688341 0.940971
vt 0.523746 0.941012
vt 0.736573 0.677305
vt 0.571978 0.677346
vt 0.571827 0.652232
vt 0.736820 0.652259
vt 0.737488 0.698606
vt 0.571120 0.698684
vt 0.571978 0.677346
vt 0.736573 0.677305
vt 0.737503 0.718527
vt 0.571097 0.718650
vt 0.571120 0.698684
vt 0.737488 0.698606
vt 0.466611 0.707835
vt 0.302031 0.707886
vt 0.301120 0.686591
vt 0.467461 0.686495
vt 0.466768 0.732951
vt 0.301781 0.732927
vt 0.302031 0.707886
vt 0.466611 0.707835
vt 0.507548 0.649737
vt 0.507599 0.485158
vt 0.482483 0.485001
vt 0.482507 0.649988
vt 0.528843 0.650649
vt 0.528939 0.484307
vt 0.507599 0.485158
vt 0.507548 0.649737
vt 0.301024 0.914118
vt 0.467392 0.914040
vt 0.467407 0.933961
vt 0.301001 0.934084
vt 0.301881 0.892780
vt 0.466476 0.892739
vt 0.467392 0.914040
vt 0.301024 0.914118
vt 0.301730 0.867666
vt 0.466723 0.867694
vt 0.466476 0.892739
vt 0.301881 0.892780
vt 0.571827 0.652232
vt 0.571978 0.677346
vt 0.553158 0.672259
vt 0.553302 0.647730
vt 0.571978 0.677346
vt 0.571120 0.698684
vt 0.551447 0.692742
vt 0.553158 0.672259
vt 0.015529 0.737942
vt 0.001608 0.751863
vt 0.015923 0.765107
vt 0.028772 0.752257
vt 0.301120 0.686591
vt 0.302031 0.707886
vt 0.283220 0.712957
vt 0.281377 0.692356
vt 0.302031 0.707886
vt 0.301781 0.732927
vt 0.283241 0.737440
vt 0.283220 0.712957
vt 0.301781 0.732927
vt 0.301730 0.867666
vt 0.283205 0.863164
vt 0.283241 0.737440
vt 0.301730 0.867666
vt 0.301881 0.892780
vt 0.283061 0.887693
vt 0.283205 0.863164
vt 0.301881 0.892780
vt 0.301024 0.914118
vt 0.281350 0.908176
vt 0.283061 0.887693
vt 0.001608 0.984472
vt 0.015529 0.998392
vt 0.028772 0.984077
vt 0.015923 0.971228
vt 0.528843 0.650649
vt 0.507548 0.649737
vt 0.502477 0.668549
vt 0.523079 0.670392
vt 0.507548 0.649737
vt 0.482507 0.649988
vt 0.477995 0.668528
vt 0.502477 0.668549
vt 0.482507 0.649988
vt 0.347768 0.650038
vt 0.352270 0.668563
vt 0.477995 0.668528
vt 0.347768 0.650038
vt 0.322654 0.649887
vt 0.327741 0.668707
vt 0.352270 0.668563
vt 0.322654 0.649887
vt 0.301316 0.650744
vt 0.307258 0.670418
vt 0.327741 0.668707
vt 0.248137 0.998392
vt 0.262058 0.984472
vt 0.247743 0.971228
vt 0.234894 0.984077
vt 0.522985 0.734823
vt 0.523896 0.756118
vt 0.505085 0.761189
vt 0.503242 0.740587
vt 0.523896 0.756118
vt 0.523645 0.781158
vt 0.505105 0.785671
vt 0.505085 0.761189
vt 0.523645 0.781158
vt 0.523595 0.915897
vt 0.505070 0.911395
vt 0.505105 0.785671
vt 0.523595 0.915897
vt 0.523746 0.941012
vt 0.504926 0.935924
vt 0.505070 0.911395
vt 0.523746 0.941012
vt 0.522889 0.962350
vt 0.503215 0.956407
vt 0.504926 0.935924
vt 0.262058 0.751863
vt 0.248137 0.737942
vt 0.234894 0.752257
vt 0.247743 0.765107
vt 0.571216 0.471157
vt 0.572128 0.492452
vt 0.553316 0.497523
vt 0.551473 0.476921
vt 0.572128 0.492452
vt 0.571877 0.517493
vt 0.553337 0.522005
vt 0.553316 0.497523
vt 0.571877 0.517493
vt 0.571827 0.652232
vt 0.553302 0.647730
vt 0.553337 0.522005
vt 0.482483 0.485001
vt 0.507599 0.485158
vt 0.502516 0.466335
vt 0.477984 0.466475
vt 0.507599 0.485158
vt 0.528939 0.484307
vt 0.523002 0.464630
vt 0.502516 0.466335
vt 0.004823 0.707944
vt 0.018744 0.721865
vt 0.031988 0.707550
vt 0.019138 0.694700
vt 0.467392 0.914040
vt 0.466476 0.892739
vt 0.485291 0.887664
vt 0.487138 0.908270
vt 0.466476 0.892739
vt 0.466723 0.867694
vt 0.485265 0.863179
vt 0.485291 0.887664
vt 0.466723 0.867694
vt 0.466768 0.732951
vt 0.485294 0.737450
vt 0.485265 0.863179
vt 0.466768 0.732951
vt 0.466611 0.707835
vt 0.485433 0.712918
vt 0.485294 0.737450
vt 0.466611 0.707835
vt 0.467461 0.686495
vt 0.487138 0.692432
vt 0.485433 0.712918
vt 0.251353 0.721864
vt 0.265273 0.707944
vt 0.250959 0.694700
vt 0.238109 0.707549
vt 0.737488 0.698606
vt 0.736573 0.677305
vt 0.755387 0.672230
vt 0.757235 0.692836
vt 0.736573 0.677305
vt 0.736820 0.652259
vt 0.755362 0.647744
vt 0.755387 0.672230
vt 0.736820 0.652259
vt 0.736864 0.517516
vt 0.755390 0.522016
vt 0.755362 0.647744
vt 0.736864 0.517516
vt 0.736707 0.492401
vt 0.755529 0.497484
vt 0.755390 0.522016
vt 0.736707 0.492401
vt 0.737558 0.471061
vt 0.757235 0.476998
vt 0.755529 0.497484
vt 0.265273 0.475335
vt 0.251353 0.461415
vt 0.238109 0.475730
vt 0.250958 0.488579
vt 0.689257 0.962271
vt 0.688341 0.940971
vt 0.707156 0.935895
vt 0.709003 0.956502
vt 0.688341 0.940971
vt 0.688588 0.915925
vt 0.707130 0.911410
vt 0.707156 0.935895
vt 0.688588 0.915925
vt 0.688633 0.781182
vt 0.707159 0.785681
vt 0.707130 0.911410
vt 0.688633 0.781182
vt 0.688475 0.756066
vt 0.707298 0.761149
vt 0.707159 0.785681
vt 0.688475 0.756066
vt 0.689326 0.734727
vt 0.709003 0.740664
vt 0.707298 0.761149
vt 0.018744 0.461415
vt 0.004823 0.475336
vt 0.019138 0.488579
vt 0.031988 0.475730
vt 0.301394 0.484377
vt 0.322695 0.485292
vt 0.327770 0.466478
vt 0.307164 0.464630
vt 0.322695 0.485292
vt 0.347741 0.485045
vt 0.352255 0.466503
vt 0.327770 0.466478
vt 0.347741 0.485045
vt 0.482483 0.485001
vt 0.477984 0.466475
vt 0.352255 0.466503
vt 0.914791 0.458199
vt 0.914791 0.512862
vt 0.963022 0.512862
vt 0.963022 0.458199
vt 0.583601 0.114148
vt 0.638264 0.114148
vt 0.638264 0.065916
vt 0.583601 0.065916
vt 0.638264 0.114148
vt 0.692926 0.114148
vt 0.692926 0.065916
vt 0.638264 0.065916
vt 0.966238 0.368167
vt 0.966238 0.313505
vt 0.918006 0.313505
vt 0.918006 0.368167
vt 0.966238 0.313505
vt 0.966238 0.258842
vt 0.918006 0.258842
vt 0.918006 0.313505
vt 0.918006 0.593248
vt 0.863344 0.593248
vt 0.863344 0.545016
vt 0.918006 0.545016
vt 0.863344 0.593248
vt 0.808682 0.593248
vt 0.808682 0.545016
vt 0.863344 0.545016
vt 0.914791 0.403537
vt 0.914791 0.458199
vt 0.963022 0.458199
vt 0.963022 0.403537
vt 0.789389 0.055423
vt 0.789389 0.086056
vt 0.767728 0.107717
vt 0.737095 0.107717
vt 0.715434 0.086056
vt 0.715434 0.055423
vt 0.737095 0.033762
vt 0.767728 0.033762
vt 0.802100 0.449356
vt 0.802085 0.478236
vt 0.822045 0.498866
vt 0.850885 0.499140
vt 0.871253 0.478626
vt 0.871400 0.449464
vt 0.851242 0.428738
vt 0.822585 0.428588
vt 0.544900 0.085209
vt 0.488244 0.085997
vt 0.488359 0.133441
vt 0.545016 0.132652
vt 0.488244 0.085997
vt 0.435691 0.085209
vt 0.435807 0.132652
vt 0.488359 0.133441
vt 0.937183 0.997604
vt 0.884631 0.998392
vt 0.884747 0.950949
vt 0.937299 0.950161
vt 0.884631 0.998392
vt 0.827974 0.997604
vt 0.828090 0.950161
vt 0.884747 0.950949
vt 0.924455 0.001608
vt 0.982315 0.001608
vt 0.982297 0.046624
vt 0.924437 0.046624
vt 0.287830 0.950161
vt 0.342468 0.950161
vt 0.342419 0.998392
vt 0.287781 0.998392
vt 0.342468 0.950161
vt 0.397106 0.950161
vt 0.397058 0.998392
vt 0.342419 0.998392
vt 0.303859 0.091622
vt 0.303859 0.033762
vt 0.258842 0.033780
vt 0.258842 0.091640
vt 0.053902 0.033762
vt 0.023269 0.033762
vt 0.001608 0.055423
vt 0.001608 0.086056
vt 0.023269 0.107717
vt 0.053902 0.107717
vt 0.075563 0.086056
vt 0.075563 0.055423
vt 0.385092 0.143087
vt 0.406752 0.121426
vt 0.406752 0.090793
vt 0.385092 0.069132
vt 0.354458 0.069132
vt 0.332797 0.090793
vt 0.332797 0.121426
vt 0.354458 0.143087
vt 0.197749 0.409968
vt 0.085209 0.409968
vt 0.085209 0.323151
vt 0.197749 0.323151
vt 0.602894 0.438907
vt 0.602894 0.287781
vt 0.461415 0.287781
vt 0.461415 0.438907
vt 0.824759 0.912280
vt 0.789628 0.918103
vt 0.789628 0.821507
vt 0.824759 0.827258
vt 0.834644 0.728332
vt 0.869775 0.722582
vt 0.869775 0.637560
vt 0.834644 0.631736
vt 0.759012 0.133441
vt 0.646131 0.133441
vt 0.638451 0.167615
vt 0.766698 0.167615
vt 0.576983 0.186908
vt 0.448736 0.186908
vt 0.456422 0.152733
vt 0.569303 0.152733
vt 0.448736 0.186908
vt 0.576983 0.186908
vt 0.599678 0.252412
vt 0.426045 0.252412
vt 0.834644 0.728332
vt 0.834644 0.631736
vt 0.773312 0.599678
vt 0.773312 0.760450
vt 0.766698 0.167615
vt 0.638451 0.167615
vt 0.615756 0.233119
vt 0.789389 0.233119
vt 0.789628 0.821507
vt 0.789628 0.918103
vt 0.728296 0.950161
vt 0.728296 0.789389
vt 0.324455 0.152733
vt 0.267185 0.152733
vt 0.270370 0.160423
vt 0.321270 0.160423
vt 0.267185 0.152733
vt 0.226688 0.193230
vt 0.234378 0.196415
vt 0.270370 0.160423
vt 0.226688 0.193230
vt 0.226688 0.250500
vt 0.234378 0.247315
vt 0.234378 0.196415
vt 0.226688 0.250500
vt 0.267185 0.290997
vt 0.270370 0.283307
vt 0.234378 0.247315
vt 0.267185 0.290997
vt 0.324455 0.290997
vt 0.321270 0.283307
vt 0.270370 0.283307
vt 0.324455 0.290997
vt 0.364952 0.250500
vt 0.357262 0.247315
vt 0.321270 0.283307
vt 0.364952 0.250500
vt 0.364952 0.193230
vt 0.357262 0.196415
vt 0.357262 0.247315
vt 0.364952 0.193230
vt 0.324455 0.152733
vt 0.321270 0.160423
vt 0.357262 0.196415
vt 0.024116 0.231208
vt 0.064612 0.271704
vt 0.067797 0.264015
vt 0.031805 0.228023
vt 0.064612 0.271704
vt 0.121883 0.271704
vt 0.118698 0.264015
vt 0.067797 0.264015
vt 0.121883 0.271704
vt 0.162379 0.231208
vt 0.154690 0.228023
vt 0.118698 0.264015
vt 0.162379 0.231208
vt 0.162379 0.173937
vt 0.154690 0.177122
vt 0.154690 0.228023
vt 0.162379 0.173937
vt 0.121883 0.133441
vt 0.118698 0.141130
vt 0.154690 0.177122
vt 0.121883 0.133441
vt 0.064612 0.133441
vt 0.067797 0.141130
vt 0.118698 0.141130
vt 0.064612 0.133441
vt 0.024116 0.173937
vt 0.031805 0.177122
vt 0.067797 0.141130
vt 0.024116 0.173937
vt 0.024116 0.231208
vt 0.031805 0.228023
vt 0.031805 0.177122
vt 0.625402 0.321847
vt 0.665898 0.281350
vt 0.669084 0.289040
vt 0.633092 0.325032
vt 0.665898 0.281350
vt 0.723169 0.281350
vt 0.719984 0.289040
vt 0.669084 0.289040
vt 0.723169 0.281350
vt 0.763666 0.321847
vt 0.755976 0.325032
vt 0.719984 0.289040
vt 0.763666 0.321847
vt 0.763666 0.379118
vt 0.755976 0.375933
vt 0.755976 0.325032
vt 0.763666 0.379118
vt 0.723169 0.419614
vt 0.719984 0.411925
vt 0.755976 0.375933
vt 0.723169 0.419614
vt 0.665898 0.419614
vt 0.669084 0.411925
vt 0.719984 0.411925
vt 0.665898 0.419614
vt 0.625402 0.379118
vt 0.633092 0.375933
vt 0.669084 0.411925
vt 0.625402 0.379118
vt 0.625402 0.321847
vt 0.633092 0.325032
vt 0.633092 0.375933
vt 0.393891 0.347570
vt 0.393891 0.404841
vt 0.386201 0.401656
vt 0.386201 0.350756
vt 0.393891 0.404841
vt 0.353394 0.445338
vt 0.350209 0.437648
vt 0.386201 0.401656
vt 0.353394 0.445338
vt 0.296123 0.445338
vt 0.299309 0.437648
vt 0.350209 0.437648
vt 0.296123 0.445338
vt 0.255627 0.404841
vt 0.263317 0.401656
vt 0.299309 0.437648
vt 0.255627 0.404841
vt 0.255627 0.347570
vt 0.263317 0.350756
vt 0.263317 0.401656
vt 0.255627 0.347570
vt 0.296124 0.307074
vt 0.299309 0.314764
vt 0.263317 0.350756
vt 0.296124 0.307074
vt 0.353394 0.307074
vt 0.350209 0.314764
vt 0.299309 0.314764
vt 0.353394 0.307074
vt 0.393891 0.347570
vt 0.386201 0.350756
vt 0.350209 0.314764
vt 0.541801 0.049839
vt 0.491961 0.049839
vt 0.491961 0.056270
vt 0.541800 0.056270
vt 0.491961 0.049839
vt 0.442122 0.049839
vt 0.442122 0.056270
vt 0.491961 0.056270
vt 0.959807 0.242765
vt 0.959809 0.192926
vt 0.966238 0.192926
vt 0.966236 0.242765
vt 0.959809 0.192926
vt 0.959807 0.143087
vt 0.966236 0.143087
vt 0.966238 0.192926
vt 0.381029 0.262058
vt 0.381029 0.212219
vt 0.387460 0.212219
vt 0.387460 0.262058
vt 0.381029 0.212219
vt 0.381029 0.162379
vt 0.387460 0.162380
vt 0.387460 0.212219
vt 0.731511 0.258844
vt 0.681672 0.258842
vt 0.681672 0.265272
vt 0.731511 0.265273
vt 0.681672 0.258842
vt 0.631833 0.258844
vt 0.631833 0.265273
vt 0.681672 0.265272
vt 0.972669 0.583601
vt 0.972669 0.635048
vt 0.979100 0.635048
vt 0.979100 0.583601
vt 0.567524 0.049839
vt 0.618971 0.049839
vt 0.618971 0.043408
vt 0.567524 0.043408
vt 0.618971 0.049839
vt 0.670418 0.049839
vt 0.670418 0.043408
vt 0.618971 0.043408
vt 0.004823 0.004823
vt 0.056270 0.004823
vt 0.056270 0.011254
vt 0.004823 0.011254
vt 0.200964 0.088424
vt 0.149518 0.088426
vt 0.149518 0.094855
vt 0.200965 0.094854
vt 0.149518 0.088426
vt 0.098071 0.088424
vt 0.098071 0.094854
vt 0.149518 0.094855
vt 0.242765 0.065918
vt 0.191318 0.065916
vt 0.191318 0.072346
vt 0.242765 0.072347
vt 0.191318 0.065916
vt 0.139871 0.065918
vt 0.139872 0.072347
vt 0.191318 0.072346
vt 0.369775 0.053053
vt 0.419614 0.053055
vt 0.419614 0.043410
vt 0.369775 0.043408
vt 0.940514 0.763666
vt 0.890675 0.763666
vt 0.890675 0.773312
vt 0.940514 0.773312
vt 0.890675 0.763666
vt 0.840836 0.763666
vt 0.840836 0.773312
vt 0.890675 0.773312
vt 0.207394 0.149518
vt 0.207395 0.199357
vt 0.197751 0.199357
vt 0.197749 0.149518
vt 0.207395 0.199357
vt 0.207394 0.249196
vt 0.197749 0.249196
vt 0.197751 0.199357
vt 0.805466 0.049839
vt 0.855305 0.049839
vt 0.855306 0.040193
vt 0.805467 0.040193
vt 0.855305 0.049839
vt 0.905144 0.049839
vt 0.905145 0.040193
vt 0.855306 0.040193
vt 0.319936 0.053055
vt 0.369775 0.053053
vt 0.369775 0.043408
vt 0.319936 0.043410
vt 0.934084 0.188103
vt 0.934084 0.136656
vt 0.943730 0.136656
vt 0.943730 0.188103
vt 0.934084 0.136656
vt 0.934084 0.085209
vt 0.943730 0.085209
vt 0.943730 0.136656
vt 0.323151 0.011254
vt 0.271704 0.011254
vt 0.271704 0.001608
vt 0.323151 0.001608
vt 0.127010 0.049838
vt 0.178456 0.049839
vt 0.178457 0.040194
vt 0.127010 0.040193
vt 0.178456 0.049839
vt 0.229903 0.049838
vt 0.229904 0.040193
vt 0.178457 0.040194
vt 0.712219 0.979100
vt 0.763665 0.979100
vt 0.763666 0.988746
vt 0.712219 0.988746
vt 0.895498 0.625402
vt 0.895497 0.676849
vt 0.885852 0.676849
vt 0.885853 0.625402
vt 0.895497 0.676849
vt 0.895498 0.728296
vt 0.885853 0.728296
vt 0.885852 0.676849
vt 0.963022 0.825177
vt 0.927235 0.789389
vt 0.917283 0.813416
vt 0.938995 0.835129
vt 0.927235 0.789389
vt 0.876624 0.789389
vt 0.886576 0.813416
vt 0.917283 0.813416
vt 0.876624 0.789389
vt 0.840836 0.825177
vt 0.864863 0.835129
vt 0.886576 0.813416
vt 0.840836 0.825177
vt 0.840836 0.875788
vt 0.864863 0.865836
vt 0.864863 0.835129
vt 0.840836 0.875788
vt 0.876624 0.911576
vt 0.886576 0.887549
vt 0.864863 0.865836
vt 0.876624 0.911576
vt 0.927235 0.911576
vt 0.917283 0.887549
vt 0.886576 0.887549
vt 0.927235 0.911576
vt 0.963022 0.875788
vt 0.938995 0.865836
vt 0.917283 0.887549
vt 0.963022 0.875788
vt 0.963022 0.825177
vt 0.938995 0.835129
vt 0.938995 0.865836
vt 0.773312 0.437547
vt 0.773480 0.490120
vt 0.798122 0.479890
vt 0.797993 0.447771
vt 0.773480 0.490120
vt 0.809545 0.527609
vt 0.820190 0.502885
vt 0.798122 0.479890
vt 0.809545 0.527609
vt 0.860867 0.528939
vt 0.851037 0.503776
vt 0.820190 0.502885
vt 0.860867 0.528939
vt 0.898458 0.491974
vt 0.873599 0.481253
vt 0.851037 0.503776
vt 0.898458 0.491974
vt 0.898714 0.438304
vt 0.873670 0.448742
vt 0.873599 0.481253
vt 0.898714 0.438304
vt 0.861539 0.400322
vt 0.851155 0.425576
vt 0.873670 0.448742
vt 0.861539 0.400322
vt 0.809354 0.400322
vt 0.819502 0.425243
vt 0.851155 0.425576
vt 0.809354 0.400322
vt 0.773312 0.437547
vt 0.797993 0.447771
vt 0.819502 0.425243
vt 0.866142 0.239550
vt 0.815530 0.239550
vt 0.825483 0.263577
vt 0.856189 0.263577
vt 0.815530 0.239550
vt 0.779743 0.275337
vt 0.803770 0.285290
vt 0.825483 0.263577
vt 0.779743 0.275337
vt 0.779743 0.325949
vt 0.803770 0.315996
vt 0.803770 0.285290
vt 0.779743 0.325949
vt 0.815530 0.361736
vt 0.825483 0.337709
vt 0.803770 0.315996
vt 0.815530 0.361736
vt 0.866142 0.361736
vt 0.856189 0.337709
vt 0.825483 0.337709
vt 0.866142 0.361736
vt 0.901929 0.325949
vt 0.877902 0.315996
vt 0.856189 0.337709
vt 0.901929 0.325949
vt 0.901929 0.275337
vt 0.877902 0.285290
vt 0.877902 0.315996
vt 0.901929 0.275337
vt 0.866142 0.239550
vt 0.856189 0.263577
vt 0.877902 0.285290
vt 0.882219 0.207395
vt 0.831608 0.207395
vt 0.841560 0.183368
vt 0.872267 0.183368
vt 0.831608 0.207395
vt 0.795820 0.171608
vt 0.819847 0.161656
vt 0.841560 0.183368
vt 0.795820 0.171608
vt 0.795820 0.120997
vt 0.819847 0.130949
vt 0.819847 0.161656
vt 0.795820 0.120997
vt 0.831608 0.085209
vt 0.841560 0.109236
vt 0.819847 0.130949
vt 0.831608 0.085209
vt 0.882219 0.085209
vt 0.872266 0.109236
vt 0.841560 0.109236
vt 0.882219 0.085209
vt 0.918006 0.120997
vt 0.893979 0.130949
vt 0.872266 0.109236
vt 0.918006 0.120997
vt 0.918006 0.171608
vt 0.893979 0.161656
vt 0.893979 0.130949
vt 0.918006 0.171608
vt 0.882219 0.207395
vt 0.872267 0.183368
vt 0.893979 0.161656
vt 0.834405 0.008039
vt 0.803858 0.008039
vt 0.803859 0.014469
vt 0.834405 0.014469
vt 0.803858 0.008039
vt 0.773312 0.008039
vt 0.773312 0.014469
vt 0.803859 0.014469
vt 0.963024 0.975884
vt 0.963022 0.945338
vt 0.969452 0.945338
vt 0.969453 0.975884
vt 0.963022 0.945338
vt 0.963024 0.914791
vt 0.969453 0.914791
vt 0.969452 0.945338
vt 0.062701 0.210611
vt 0.093247 0.210611
vt 0.093248 0.204180
vt 0.062701 0.204180
vt 0.093247 0.210611
vt 0.123794 0.210611
vt 0.123794 0.204180
vt 0.093248 0.204180
vt 0.274920 0.255627
vt 0.274921 0.225080
vt 0.281350 0.225080
vt 0.281349 0.255627
vt 0.274921 0.225080
vt 0.274920 0.194534
vt 0.281349 0.194534
vt 0.281350 0.225080
vt 0.474277 0.966238
vt 0.474277 0.998392
vt 0.480707 0.998392
vt 0.480707 0.966238
vt 0.911576 0.725080
vt 0.942122 0.725080
vt 0.942122 0.718650
vt 0.911576 0.718650
vt 0.942122 0.725080
vt 0.972669 0.725080
vt 0.972669 0.718650
vt 0.942122 0.718650
vt 0.692927 0.316720
vt 0.692926 0.347267
vt 0.699356 0.347267
vt 0.699357 0.316720
vt 0.692926 0.347267
vt 0.692927 0.377814
vt 0.699357 0.377814
vt 0.699356 0.347267
vt 0.175241 0.004823
vt 0.144695 0.004823
vt 0.144694 0.011254
vt 0.175241 0.011254
vt 0.144695 0.004823
vt 0.114148 0.004823
vt 0.114148 0.011254
vt 0.144694 0.011254
vt 0.573955 0.130225
vt 0.606109 0.130225
vt 0.606109 0.136656
vt 0.573955 0.136656
vt 0.797993 0.447771
vt 0.798122 0.479890
vt 0.802085 0.478236
vt 0.802100 0.449356
vt 0.798122 0.479890
vt 0.820190 0.502885
vt 0.822045 0.498866
vt 0.802085 0.478236
vt 0.820190 0.502885
vt 0.851037 0.503776
vt 0.850885 0.499140
vt 0.822045 0.498866
vt 0.596463 0.008039
vt 0.565916 0.008039
vt 0.565916 0.014469
vt 0.596463 0.014469
vt 0.565916 0.008039
vt 0.535370 0.008039
vt 0.535370 0.014469
vt 0.565916 0.014469
vt 0.622187 0.454984
vt 0.652733 0.454984
vt 0.652733 0.448553
vt 0.622186 0.448553
vt 0.652733 0.454984
vt 0.683280 0.454984
vt 0.683280 0.448553
vt 0.652733 0.448553
vt 0.819502 0.425243
vt 0.797993 0.447771
vt 0.802100 0.449356
vt 0.822585 0.428588
vt 0.194534 0.011254
vt 0.225080 0.011254
vt 0.225081 0.004823
vt 0.194534 0.004823
vt 0.225080 0.011254
vt 0.255627 0.011254
vt 0.255627 0.004823
vt 0.225081 0.004823
vt 0.403537 0.020900
vt 0.372990 0.020901
vt 0.372990 0.027331
vt 0.403537 0.027330
vt 0.372990 0.020901
vt 0.342444 0.020900
vt 0.342444 0.027330
vt 0.372990 0.027331
vt 0.500000 0.004823
vt 0.469453 0.004823
vt 0.469453 0.011254
vt 0.500000 0.011254
vt 0.469453 0.004823
vt 0.438907 0.004823
vt 0.438907 0.011254
vt 0.469453 0.011254
vt 0.319935 0.332797
vt 0.319936 0.363344
vt 0.313506 0.363344
vt 0.313505 0.332797
vt 0.319936 0.363344
vt 0.319935 0.393891
vt 0.313505 0.393891
vt 0.313506 0.363344
vt 0.226688 0.287781
vt 0.053055 0.287781
vt 0.063981 0.297898
vt 0.215762 0.297898
vt 0.053055 0.287781
vt 0.053055 0.448553
vt 0.063981 0.438436
vt 0.063981 0.297898
vt 0.053055 0.448553
vt 0.226688 0.448553
vt 0.215762 0.438436
vt 0.063981 0.438436
vt 0.226688 0.448553
vt 0.226688 0.287781
vt 0.215762 0.297898
vt 0.215762 0.438436
vt 0.159164 0.117363
vt 0.310289 0.117363
vt 0.310289 0.133441
vt 0.159164 0.133441
vt 0.438907 0.419614
vt 0.438907 0.278135
vt 0.422830 0.278135
vt 0.422830 0.419614
vt 0.027331 0.287781
vt 0.027331 0.438907
vt 0.011254 0.438907
vt 0.011254 0.287781
vt 0.950161 0.548231
vt 0.950161 0.689711
vt 0.934084 0.689711
vt 0.934084 0.548231
vn -0.312964 -0.052328 0.948322
vn 0.312964 -0.052328 0.948322
vn 0.312964 0.052328 0.948322
vn -0.312964 0.052328 0.948322
vn 0.312964 -0.052328 -0.948322
vn -0.312964 -0.052328 -0.948322
vn -0.312964 0.052328 -0.948322
vn 0.312964 0.052328 -0.948322
vn 0.805954 -0.032465 0.591087
vn 0.823633 -0.142893 0.548826
vn 0.840349 -0.302946 0.449486
vn 0.840349 -0.449486 0.302946
vn 0.823633 -0.548826 0.142894
vn 0.805954 -0.591087 0.032466
vn 0.805954 -0.591087 -0.032465
vn 0.823633 -0.548826 -0.142894
vn 0.840349 -0.449486 -0.302946
vn 0.840349 -0.302946 -0.449486
vn 0.823633 -0.142894 -0.548826
vn 0.805954 -0.032465 -0.591087
vn 0.805954 0.032465 -0.591087
vn 0.823633 0.142893 -0.548826
vn 0.840349 0.302946 -0.449486
vn 0.840349 0.449486 -0.302946
vn 0.823633 0.548826 -0.142894
vn 0.805954 0.591087 -0.032466
vn 0.805954 0.591087 0.032465
vn 0.823633 0.548826 0.142894
vn 0.840349 0.449486 0.302946
vn 0.840349 0.302946 0.449486
vn 0.823633 0.142894 0.548826
vn 0.805954 0.032465 0.591087
vn -0.805954 -0.032465 -0.591087
vn -0.823633 -0.142893 -0.548826
vn -0.840349 -0.302946 -0.449486
vn -0.840349 -0.449486 -0.302946
vn -0.823633 -0.548826 -0.142894
vn -0.805954 -0.591087 -0.032466
vn -0.805954 -0.591087 0.032465
vn -0.823633 -0.548826 0.142894
vn -0.840349 -0.449486 0.302946
vn -0.840349 -0.302946 0.449486
vn -0.823633 -0.142894 0.548826
vn -0.805954 -0.032465 0.591087
vn -0.805954 0.032465 0.591087
vn -0.823633 0.142893 0.548826
vn -0.840349 0.302946 0.449486
vn -0.840349 0.449486 0.302946
vn -0.823633 0.548826 0.142894
vn -0.805954 0.591087 0.032466
vn -0.805954 0.591087 -0.032465
vn -0.823633 0.548826 -0.142894
vn -0.840349 0.449486 -0.302946
vn -0.840349 0.302946 -0.449486
vn -0.823633 0.142894 -0.548826
vn -0.805954 0.032465 -0.591087
vn -0.312964 0.948322 0.052328
vn 0.312964 0.948322 0.052328
vn 0.312964 0.948322 -0.052328
vn -0.312964 0.948322 -0.052328
vn -0.312964 -0.948322 -0.052328
vn 0.312964 -0.948322 -0.052328
vn 0.312964 -0.948322 0.052328
vn -0.312964 -0.948322 0.052328
vn -0.333298 0.239126 -0.911993
vn 0.333298 0.239125 -0.911993
vn 0.312964 0.052328 -0.948322
vn -0.312964 0.052328 -0.948322
vn -0.353883 0.523651 -0.774955
vn 0.353883 0.523651 -0.774955
vn 0.333298 0.239125 -0.911993
vn -0.333298 0.239126 -0.911993
vn -0.353883 0.774956 -0.523651
vn 0.353883 0.774956 -0.523651
vn 0.353883 0.523651 -0.774955
vn -0.353883 0.523651 -0.774955
vn -0.333298 0.911993 -0.239126
vn 0.333298 0.911993 -0.239126
vn 0.353883 0.774956 -0.523651
vn -0.353883 0.774956 -0.523651
vn -0.312964 0.948322 -0.052328
vn 0.312964 0.948322 -0.052328
vn 0.333298 0.911993 -0.239126
vn -0.333298 0.911993 -0.239126
vn 0.333298 0.239126 0.911993
vn -0.333298 0.239125 0.911993
vn -0.312964 0.052328 0.948322
vn 0.312964 0.052328 0.948322
vn 0.353883 0.523651 0.774955
vn -0.353883 0.523651 0.774955
vn -0.333298 0.239125 0.911993
vn 0.333298 0.239126 0.911993
vn 0.353883 0.774956 0.523651
vn -0.353883 0.774956 0.523651
vn -0.353883 0.523651 0.774955
vn 0.353883 0.523651 0.774955
vn 0.333298 0.911993 0.239126
vn -0.333298 0.911993 0.239126
vn -0.353883 0.774956 0.523651
vn 0.353883 0.774956 0.523651
vn 0.312964 0.948322 0.052328
vn -0.312964 0.948322 0.052328
vn -0.333298 0.911993 0.239126
vn 0.333298 0.911993 0.239126
vn -0.333298 -0.239126 0.911993
vn 0.333298 -0.239125 0.911993
vn 0.312964 -0.052328 0.948322
vn -0.312964 -0.052328 0.948322
vn -0.353883 -0.523651 0.774955
vn 0.353883 -0.523651 0.774955
vn 0.333298 -0.239125 0.911993
vn -0.333298 -0.239126 0.911993
vn -0.353883 -0.774956 0.523651
vn 0.353883 -0.774956 0.523651
vn 0.353883 -0.523651 0.774955
vn -0.353883 -0.523651 0.774955
vn -0.333298 -0.911993 0.239126
vn 0.333298 -0.911993 0.239126
vn 0.353883 -0.774956 0.523651
vn -0.353883 -0.774956 0.523651
vn -0.312964 -0.948322 0.052328
vn 0.312964 -0.948322 0.052328
vn 0.333298 -0.911993 0.239126
vn -0.333298 -0.911993 0.239126
vn 0.333298 -0.239126 -0.911993
vn -0.333298 -0.239125 -0.911993
vn -0.312964 -0.052328 -0.948322
vn 0.312964 -0.052328 -0.948322
vn 0.353883 -0.523651 -0.774955
vn -0.353883 -0.523651 -0.774955
vn -0.333298 -0.239125 -0.911993
vn 0.333298 -0.239126 -0.911993
vn 0.353883 -0.774956 -0.523651
vn -0.353883 -0.774956 -0.523651
vn -0.353883 -0.523651 -0.774955
vn 0.353883 -0.523651 -0.774955
vn 0.333298 -0.911993 -0.239126
vn -0.333298 -0.911993 -0.239126
vn -0.353883 -0.774956 -0.523651
vn 0.353883 -0.774956 -0.523651
vn 0.312964 -0.948322 -0.052328
vn -0.312964 -0.948322 -0.052328
vn -0.333298 -0.911993 -0.239126
vn 0.333298 -0.911993 -0.239126
vn 0.312964 -0.052328 0.948322
vn 0.333298 -0.239125 0.911993
vn 0.823633 -0.142893 0.548826
vn 0.805954 -0.032465 0.591087
vn 0.333298 -0.239125 0.911993
vn 0.353883 -0.523651 0.774955
vn 0.840349 -0.302946 0.449486
vn 0.823633 -0.142893 0.548826
vn 0.353883 -0.523651 0.774955
vn 0.353883 -0.774956 0.523651
vn 0.840349 -0.449486 0.302946
vn 0.840349 -0.302946 0.449486
vn 0.353883 -0.774956 0.523651
vn 0.333298 -0.911993 0.239126
vn 0.823633 -0.548826 0.142894
vn 0.840349 -0.449486 0.302946
vn 0.333298 -0.911993 0.239126
vn 0.312964 -0.948322 0.052328
vn 0.805954 -0.591087 0.032466
vn 0.823633 -0.548826 0.142894
vn 0.312964 -0.948322 0.052328
vn 0.312964 -0.948322 -0.052328
vn 0.805954 -0.591087 -0.032465
vn 0.805954 -0.591087 0.032466
vn 0.312964 -0.948322 -0.052328
vn 0.333298 -0.911993 -0.239126
vn 0.823633 -0.548826 -0.142894
vn 0.805954 -0.591087 -0.032465
vn 0.333298 -0.911993 -0.239126
vn 0.353883 -0.774956 -0.523651
vn 0.840349 -0.449486 -0.302946
vn 0.823633 -0.548826 -0.142894
vn 0.353883 -0.774956 -0.523651
vn 0.353883 -0.523651 -0.774955
vn 0.840349 -0.302946 -0.449486
vn 0.840349 -0.449486 -0.302946
vn 0.353883 -0.523651 -0.774955
vn 0.333298 -0.239126 -0.911993
vn 0.823633 -0.142894 -0.548826
vn 0.840349 -0.302946 -0.449486
vn 0.333298 -0.239126 -0.911993
vn 0.312964 -0.052328 -0.948322
vn 0.805954 -0.032465 -0.591087
vn 0.823633 -0.142894 -0.548826
vn 0.312964 -0.052328 -0.948322
vn 0.312964 0.052328 -0.948322
vn 0.805954 0.032465 -0.591087
vn 0.805954 -0.032465 -0.591087
vn 0.312964 0.052328 -0.948322
vn 0.333298 0.239125 -0.911993
vn 0.823633 0.142893 -0.548826
vn 0.805954 0.032465 -0.591087
vn 0.333298 0.239125 -0.911993
vn 0.353883 0.523651 -0.774955
vn 0.840349 0.302946 -0.449486
vn 0.823633 0.142893 -0.548826
vn 0.353883 0.523651 -0.774955
vn 0.353883 0.774956 -0.523651
vn 0.840349 0.449486 -0.302946
vn 0.840349 0.302946 -0.449486
vn 0.353883 0.774956 -0.523651
vn 0.333298 0.911993 -0.239126
vn 0.823633 0.548826 -0.142894
vn 0.840349 0.449486 -0.302946
vn 0.333298 0.911993 -0.239126
vn 0.312964 0.948322 -0.052328
vn 0.805954 0.591087 -0.032466
vn 0.823633 0.548826 -0.142894
vn 0.312964 0.948322 -0.052328
vn 0.312964 0.948322 0.052328
vn 0.805954 0.591087 0.032465
vn 0.805954 0.591087 -0.032466
vn 0.312964 0.948322 0.052328
vn 0.333298 0.911993 0.239126
vn 0.823633 0.548826 0.142894
vn 0.805954 0.591087 0.032465
vn 0.333298 0.911993 0.239126
vn 0.353883 0.774956 0.523651
vn 0.840349 0.449486 0.302946
vn 0.823633 0.548826 0.142894
vn 0.353883 0.774956 0.523651
vn 0.353883 0.523651 0.774955
vn 0.840349 0.302946 0.449486
vn 0.840349 0.449486 0.302946
vn 0.353883 0.523651 0.774955
vn 0.333298 0.239126 0.911993
vn 0.823633 0.142894 0.548826
vn 0.840349 0.302946 0.449486
vn 0.333298 0.239126 0.911993
vn 0.312964 0.052328 0.948322
vn 0.805954 0.032465 0.591087
vn 0.823633 0.142894 0.548826
vn 0.312964 0.052328 0.948322
vn 0.312964 -0.052328 0.948322
vn 0.805954 -0.032465 0.591087
vn 0.805954 0.032465 0.591087
vn -0.312964 -0.052328 -0.948322
vn -0.333298 -0.239125 -0.911993
vn -0.823633 -0.142893 -0.548826
vn -0.805954 -0.032465 -0.591087
vn -0.333298 -0.239125 -0.911993
vn -0.353883 -0.523651 -0.774955
vn -0.840349 -0.302946 -0.449486
vn -0.823633 -0.142893 -0.548826
vn -0.353883 -0.523651 -0.774955
vn -0.353883 -0.774956 -0.523651
vn -0.840349 -0.449486 -0.302946
vn -0.840349 -0.302946 -0.449486
vn -0.353883 -0.774956 -0.523651
vn -0.333298 -0.911993 -0.239126
vn -0.823633 -0.548826 -0.142894
vn -0.840349 -0.449486 -0.302946
vn -0.333298 -0.911993 -0.239126
vn -0.312964 -0.948322 -0.052328
vn -0.805954 -0.591087 -0.032466
vn -0.823633 -0.548826 -0.142894
vn -0.312964 -0.948322 -0.052328
vn -0.312964 -0.948322 0.052328
vn -0.805954 -0.591087 0.032465
vn -0.805954 -0.591087 -0.032466
vn -0.312964 -0.948322 0.052328
vn -0.333298 -0.911993 0.239126
vn -0.823633 -0.548826 0.142894
vn -0.805954 -0.591087 0.032465
vn -0.333298 -0.911993 0.239126
vn -0.353883 -0.774956 0.523651
vn -0.840349 -0.449486 0.302946
vn -0.823633 -0.548826 0.142894
vn -0.353883 -0.774956 0.523651
vn -0.353883 -0.523651 0.774955
vn -0.840349 -0.302946 0.449486
vn -0.840349 -0.449486 0.302946
vn -0.353883 -0.523651 0.774955
vn -0.333298 -0.239126 0.911993
vn -0.823633 -0.142894 0.548826
vn -0.840349 -0.302946 0.449486
vn -0.333298 -0.239126 0.911993
vn -0.312964 -0.052328 0.948322
vn -0.805954 -0.032465 0.591087
vn -0.823633 -0.142894 0.548826
vn -0.312964 -0.052328 0.948322
vn -0.312964 0.052328 0.948322
vn -0.805954 0.032465 0.591087
vn -0.805954 -0.032465 0.591087
vn -0.312964 0.052328 0.948322
vn -0.333298 0.239125 0.911993
vn -0.823633 0.142893 0.548826
vn -0.805954 0.032465 0.591087
vn -0.333298 0.239125 0.911993
vn -0.353883 0.523651 0.774955
vn -0.840349 0.302946 0.449486
vn -0.823633 0.142893 0.548826
vn -0.353883 0.523651 0.774955
vn -0.353883 0.774956 0.523651
vn -0.840349 0.449486 0.302946
vn -0.840349 0.302946 0.449486
vn -0.353883 0.774956 0.523651
vn -0.333298 0.911993 0.239126
vn -0.823633 0.548826 0.142894
vn -0.840349 0.449486 0.302946
vn -0.333298 0.911993 0.239126
vn -0.312964 0.948322 0.052328
vn -0.805954 0.591087 0.032466
vn -0.823633 0.548826 0.142894
vn -0.312964 0.948322 0.052328
vn -0.312964 0.948322 -0.052328
vn -0.805954 0.591087 -0.032465
vn -0.805954 0.591087 0.032466
vn -0.312964 0.948322 -0.052328
vn -0.333298 0.911993 -0.239126
vn -0.823633 0.548826 -0.142894
vn -0.805954 0.591087 -0.032465
vn -0.333298 0.911993 -0.239126
vn -0.353883 0.774956 -0.523651
vn -0.840349 0.449486 -0.302946
vn -0.823633 0.548826 -0.142894
vn -0.353883 0.774956 -0.523651
vn -0.353883 0.523651 -0.774955
vn -0.840349 0.302946 -0.449486
vn -0.840349 0.449486 -0.302946
vn -0.353883 0.523651 -0.774955
vn -0.333298 0.239126 -0.911993
vn -0.823633 0.142894 -0.548826
vn -0.840349 0.302946 -0.449486
vn -0.333298 0.239126 -0.911993
vn -0.312964 0.052328 -0.948322
vn -0.805954 0.032465 -0.591087
vn -0.823633 0.142894 -0.548826
vn -0.312964 0.052328 -0.948322
vn -0.312964 -0.052328 -0.948322
vn -0.805954 -0.032465 -0.591087
vn -0.805954 0.032465 -0.591087
vn 0.000000 -0.923880 0.382684
vn 0.000000 -0.923880 0.382684
vn 0.000000 -0.923880 0.382684
vn 0.000000 -0.923880 0.382684
vn 0.000000 -0.382683 0.923880
vn 0.000000 -0.382683 0.923880
vn 0.000000 -0.382683 0.923880
vn 0.000000 -0.382683 0.923880
vn 0.000000 0.382683 0.923880
vn 0.000000 0.382683 0.923880
vn 0.000000 0.382683 0.923880
vn 0.000000 0.382683 0.923880
vn 0.000000 0.923880 0.382683
vn 0.000000 0.923880 0.382683
vn 0.000000 0.923880 0.382683
vn 0.000000 0.923880 0.382683
vn -0.000000 0.923879 -0.382683
vn -0.000000 0.923879 -0.382683
vn -0.000000 0.923879 -0.382683
vn -0.000000 0.923879 -0.382683
vn -0.000000 0.382683 -0.923880
vn -0.000000 0.382683 -0.923880
vn -0.000000 0.382683 -0.923880
vn -0.000000 0.382683 -0.923880
vn 0.000000 -0.382683 -0.923880
vn 0.000000 -0.382683 -0.923880
vn 0.000000 -0.382683 -0.923880
vn 0.000000 -0.382683 -0.923880
vn 0.000000 -0.923880 -0.382683
vn 0.000000 -0.923880 -0.382683
vn 0.000000 -0.923880 -0.382683
vn 0.000000 -0.923880 -0.382683
vn 1.000000 0.000000 0.000000
vn 1.000000 0.000000 0.000000
vn 1.000000 0.000000 0.000000
vn 1.000000 0.000000 0.000000
vn 1.000000 0.000000 0.000000
vn 1.000000 0.000000 0.000000
vn 1.000000 0.000000 0.000000
vn 1.000000 0.000000 0.000000
vn -1.000000 -0.000000 0.000000
vn -1.000000 -0.000000 0.000000
vn -1.000000 -0.000000 0.000000
vn -1.000000 -0.000000 0.000000
vn -1.000000 -0.000000 0.000000
vn -1.000000 -0.000000 0.000000
vn -1.000000 -0.000000 0.000000
vn -1.000000 -0.000000 0.000000
vn 0.001049 0.923879 0.382684
vn 0.001049 0.923879 0.382684
vn 0.001049 0.923879 0.382684
vn 0.001049 0.923879 0.382684
vn 0.000434 0.382683 0.923880
vn 0.000434 0.382683 0.923880
vn 0.000434 0.382683 0.923880
vn 0.000434 0.382683 0.923880
vn -0.000435 -0.382683 0.923880
vn -0.000435 -0.382683 0.923880
vn -0.000435 -0.382683 0.923880
vn -0.000435 -0.382683 0.923880
vn -0.001050 -0.923879 0.382683
vn -0.001050 -0.923879 0.382683
vn -0.001050 -0.923879 0.382683
vn -0.001050 -0.923879 0.382683
vn -0.001050 -0.923879 -0.382684
vn -0.001050 -0.923879 -0.382684
vn -0.001050 -0.923879 -0.382684
vn -0.001050 -0.923879 -0.382684
vn -0.000435 -0.382683 -0.923880
vn -0.000435 -0.382683 -0.923880
vn -0.000435 -0.382683 -0.923880
vn -0.000435 -0.382683 -0.923880
vn 0.000435 0.382683 -0.923880
vn 0.000435 0.382683 -0.923880
vn 0.000435 0.382683 -0.923880
vn 0.000435 0.382683 -0.923880
vn 0.001050 0.923879 -0.382683
vn 0.001050 0.923879 -0.382683
vn 0.001050 0.923879 -0.382683
vn 0.001050 0.923879 -0.382683
vn -1.000000 0.000105 0.000000
vn -1.000000 0.000105 0.000000
vn -1.000000 0.000105 0.000000
vn -1.000000 0.000105 0.000000
vn -1.000000 0.000105 0.000000
vn -1.000000 0.000105 0.000000
vn -1.000000 0.000105 0.000000
vn -1.000000 0.000105 0.000000
vn 1.000000 -0.000105 0.000000
vn 1.000000 -0.000105 0.000000
vn 1.000000 -0.000105 0.000000
vn 1.000000 -0.000105 0.000000
vn 1.000000 -0.000105 0.000000
vn 1.000000 -0.000105 0.000000
vn 1.000000 -0.000105 0.000000
vn 1.000000 -0.000105 0.000000
vn -0.000000 0.000000 1.000000
vn -0.000000 0.000000 1.000000
vn -0.000000 0.000000 1.000000
vn -0.000000 0.000000 1.000000
vn 0.000000 0.000000 -1.000000
vn 0.000000 0.000000 -1.000000
vn 0.000000 0.000000 -1.000000
vn 0.000000 0.000000 -1.000000
vn 0.976061 -0.000000 0.217499
vn 0.976061 -0.000000 0.217499
vn 0.976061 -0.000000 0.217499
vn 0.976061 -0.000000 0.217499
vn -0.976061 -0.000000 0.217499
vn -0.976061 -0.000000 0.217499
vn -0.976061 -0.000000 0.217499
vn -0.976061 -0.000000 0.217499
vn 0.000000 0.986374 0.164519
vn 0.000000 0.986374 0.164519
vn 0.000000 0.986374 0.164519
vn 0.000000 0.986374 0.164519
vn 0.000000 -0.986374 0.164519
vn 0.000000 -0.986374 0.164519
vn 0.000000 -0.986374 0.164519
vn 0.000000 -0.986374 0.164519
vn 0.000000 -0.872869 0.487955
vn 0.000000 -0.872869 0.487955
vn 0.000000 -0.872869 0.487955
vn 0.000000 -0.872869 0.487955
vn -0.929166 -0.000000 0.369662
vn -0.929166 -0.000000 0.369662
vn -0.929166 -0.000000 0.369662
vn -0.929166 -0.000000 0.369662
vn -0.000000 0.872869 0.487955
vn -0.000000 0.872869 0.487955
vn -0.000000 0.872869 0.487955
vn -0.000000 0.872869 0.487955
vn 0.929166 0.000000 0.369662
vn 0.929166 0.000000 0.369662
vn 0.929166 0.000000 0.369662
vn 0.929166 0.000000 0.369662
vn 1.000000 0.000000 -0.000000
vn 1.000000 0.000000 -0.000000
vn 1.000000 0.000000 -0.000000
vn 1.000000 0.000000 -0.000000
vn 1.000000 0.000000 0.000000
vn 1.000000 0.000000 0.000000
vn 1.000000 0.000000 0.000000
vn 1.000000 0.000000 0.000000
vn 1.000000 -0.000000 0.000000
vn 1.000000 -0.000000 0.000000
vn 1.000000 -0.000000 0.000000
vn 1.000000 -0.000000 0.000000
vn 1.000000 0.000000 0.000000
vn 1.000000 0.000000 0.000000
vn 1.000000 0.000000 0.000000
vn 1.000000 0.000000 0.000000
vn 1.000000 0.000000 -0.000000
vn 1.000000 0.000000 -0.000000
vn 1.000000 0.000000 -0.000000
vn 1.000000 0.000000 -0.000000
vn 1.000000 -0.000000 0.000000
vn 1.000000 -0.000000 0.000000
vn 1.000000 -0.000000 0.000000
vn 1.000000 -0.000000 0.000000
vn 1.000000 -0.000000 0.000000
vn 1.000000 -0.000000 0.000000
vn 1.000000 -0.000000 0.000000
vn 1.000000 -0.000000 0.000000
vn 1.000000 0.000000 0.000000
vn 1.000000 0.000000 0.000000
vn 1.000000 0.000000 0.000000
vn 1.000000 0.000000 0.000000
vn -1.000000 -0.000000 -0.000000
vn -1.000000 -0.000000 -0.000000
vn -1.000000 -0.000000 -0.000000
vn -1.000000 -0.000000 -0.000000
vn -1.000000 0.000000 0.000000
vn -1.000000 0.000000 0.000000
vn -1.000000 0.000000 0.000000
vn -1.000000 0.000000 0.000000
vn -1.000000 -0.000000 0.000000
vn -1.000000 -0.000000 0.000000
vn -1.000000 -0.000000 0.000000
vn -1.000000 -0.000000 0.000000
vn -1.000000 0.000000 0.000000
vn -1.000000 0.000000 0.000000
vn -1.000000 0.000000 0.000000
vn -1.000000 0.000000 0.000000
vn -1.000000 0.000000 -0.000000
vn -1.000000 0.000000 -0.000000
vn -1.000000 0.000000 -0.000000
vn -1.000000 0.000000 -0.000000
vn -1.000000 -0.000000 -0.000000
vn -1.000000 -0.000000 -0.000000
vn -1.000000 -0.000000 -0.000000
vn -1.000000 -0.000000 -0.000000
vn -1.000000 -0.000000 0.000000
vn -1.000000 -0.000000 0.000000
vn -1.000000 -0.000000 0.000000
vn -1.000000 -0.000000 0.000000
vn -1.000000 0.000000 0.000000
vn -1.000000 0.000000 0.000000
vn -1.000000 0.000000 0.000000
vn -1.000000 0.000000 0.000000
vn -1.000000 0.000105 0.000000
vn -1.000000 0.000105 0.000000
vn -1.000000 0.000105 0.000000
vn -1.000000 0.000105 0.000000
vn -1.000000 0.000105 -0.000000
vn -1.000000 0.000105 -0.000000
vn -1.000000 0.000105 -0.000000
vn -1.000000 0.000105 -0.000000
vn -1.000000 0.000105 -0.000000
vn -1.000000 0.000105 -0.000000
vn -1.000000 0.000105 -0.000000
vn -1.000000 0.000105 -0.000000
vn -1.000000 0.000105 0.000000
vn -1.000000 0.000105 0.000000
vn -1.000000 0.000105 0.000000
vn -1.000000 0.000105 0.000000
vn -1.000000 0.000105 0.000000
vn -1.000000 0.000105 0.000000
vn -1.000000 0.000105 0.000000
vn -1.000000 0.000105 0.000000
vn -1.000000 0.000105 -0.000000
vn -1.000000 0.000105 -0.000000
vn -1.000000 0.000105 -0.000000
vn -1.000000 0.000105 -0.000000
vn -1.000000 0.000105 -0.000000
vn -1.000000 0.000105 -0.000000
vn -1.000000 0.000105 -0.000000
vn -1.000000 0.000105 -0.000000
vn -1.000000 0.000105 0.000000
vn -1.000000 0.000105 0.000000
vn -1.000000 0.000105 0.000000
vn -1.000000 0.000105 0.000000
vn 1.000000 -0.000105 -0.000000
vn 1.000000 -0.000105 -0.000000
vn 1.000000 -0.000105 -0.000000
vn 1.000000 -0.000105 -0.000000
vn 1.000000 -0.000105 -0.000000
vn 1.000000 -0.000105 -0.000000
vn 1.000000 -0.000105 -0.000000
vn 1.000000 -0.000105 -0.000000
vn 1.000000 -0.000105 -0.000000
vn 1.000000 -0.000105 -0.000000
vn 1.000000 -0.000105 -0.000000
vn 1.000000 -0.000105 -0.000000
vn 1.000000 -0.000105 -0.000000
vn 1.000000 -0.000105 -0.000000
vn 1.000000 -0.000105 -0.000000
vn 1.000000 -0.000105 -0.000000
vn 1.000000 -0.000105 0.000000
vn 1.000000 -0.000105 0.000000
vn 1.000000 -0.000105 0.000000
vn 1.000000 -0.000105 0.000000
vn 1.000000 -0.000105 0.000000
vn 1.000000 -0.000105 0.000000
vn 1.000000 -0.000105 0.000000
vn 1.000000 -0.000105 0.000000
vn 1.000000 -0.000105 0.000000
vn 1.000000 -0.000105 0.000000
vn 1.000000 -0.000105 0.000000
vn 1.000000 -0.000105 0.000000
vn 1.000000 -0.000105 0.000000
vn 1.000000 -0.000105 0.000000
vn 1.000000 -0.000105 0.000000
vn 1.000000 -0.000105 0.000000
vn 0.000020 0.382683 0.923880
vn 0.000020 0.382683 0.923880
vn 0.000020 0.382683 0.923880
vn 0.000020 0.382683 0.923880
vn -0.000022 -0.382683 0.923880
vn -0.000022 -0.382683 0.923880
vn -0.000022 -0.382683 0.923880
vn -0.000022 -0.382683 0.923880
vn -0.000048 -0.923880 0.382683
vn -0.000048 -0.923880 0.382683
vn -0.000048 -0.923880 0.382683
vn -0.000048 -0.923880 0.382683
vn -0.000048 -0.923880 -0.382683
vn -0.000048 -0.923880 -0.382683
vn -0.000048 -0.923880 -0.382683
vn -0.000048 -0.923880 -0.382683
vn -0.000020 -0.382683 -0.923880
vn -0.000020 -0.382683 -0.923880
vn -0.000020 -0.382683 -0.923880
vn -0.000020 -0.382683 -0.923880
vn 0.000020 0.382683 -0.923880
vn 0.000020 0.382683 -0.923880
vn 0.000020 0.382683 -0.923880
vn 0.000020 0.382683 -0.923880
vn 0.000048 0.923879 -0.382684
vn 0.000048 0.923879 -0.382684
vn 0.000048 0.923879 -0.382684
vn 0.000048 0.923879 -0.382684
vn 0.000049 0.923880 0.382683
vn 0.000049 0.923880 0.382683
vn 0.000049 0.923880 0.382683
vn 0.000049 0.923880 0.382683
vn -0.000049 -0.923879 -0.382684
vn -0.000049 -0.923879 -0.382684
vn -0.000049 -0.923879 -0.382684
vn -0.000049 -0.923879 -0.382684
vn -0.000020 -0.382683 -0.923880
vn -0.000020 -0.382683 -0.923880
vn -0.000020 -0.382683 -0.923880
vn -0.000020 -0.382683 -0.923880
vn 0.000022 0.382683 -0.923880
vn 0.000022 0.382683 -0.923880
vn 0.000022 0.382683 -0.923880
vn 0.000022 0.382683 -0.923880
vn 0.000048 0.923880 -0.382684
vn 0.000048 0.923880 -0.382684
vn 0.000048 0.923880 -0.382684
vn 0.000048 0.923880 -0.382684
vn 0.000049 0.923879 0.382684
vn 0.000049 0.923879 0.382684
vn 0.000049 0.923879 0.382684
vn 0.000049 0.923879 0.382684
vn 0.000020 0.382683 0.923880
vn 0.000020 0.382683 0.923880
vn 0.000020 0.382683 0.923880
vn 0.000020 0.382683 0.923880
vn -0.000020 -0.382683 0.923880
vn -0.000020 -0.382683 0.923880
vn -0.000020 -0.382683 0.923880
vn -0.000020 -0.382683 0.923880
vn -0.000049 -0.923879 0.382684
vn -0.000049 -0.923879 0.382684
vn -0.000049 -0.923879 0.382684
vn -0.000049 -0.923879 0.382684
vn 0.000048 0.923879 -0.382683
vn 0.000048 0.923879 -0.382683
vn 0.000048 0.923879 -0.382683
vn 0.000048 0.923879 -0.382683
vn 0.000020 0.382683 -0.923880
vn 0.000020 0.382683 -0.923880
vn 0.000020 0.382683 -0.923880
vn 0.000020 0.382683 -0.923880
vn -0.000020 -0.382683 -0.923880
vn -0.000020 -0.382683 -0.923880
vn -0.000020 -0.382683 -0.923880
vn -0.000020 -0.382683 -0.923880
vn -0.000048 -0.923879 -0.382684
vn -0.000048 -0.923879 -0.382684
vn -0.000048 -0.923879 -0.382684
vn -0.000048 -0.923879 -0.382684
vn -0.000048 -0.923879 0.382684
vn -0.000048 -0.923879 0.382684
vn -0.000048 -0.923879 0.382684
vn -0.000048 -0.923879 0.382684
vn -0.000020 -0.382683 0.923880
vn -0.000020 -0.382683 0.923880
vn -0.000020 -0.382683 0.923880
vn -0.000020 -0.382683 0.923880
vn 0.000020 0.382683 0.923880
vn 0.000020 0.382683 0.923880
vn 0.000020 0.382683 0.923880
vn 0.000020 0.382683 0.923880
vn 0.000048 0.923879 0.382684
vn 0.000048 0.923879 0.382684
vn 0.000048 0.923879 0.382684
vn 0.000048 0.923879 0.382684
vn -0.000020 -0.382683 0.923880
vn -0.000020 -0.382683 0.923880
vn -0.000020 -0.382683 0.923880
vn -0.000020 -0.382683 0.923880
vn 0.000020 0.382683 0.923880
vn 0.000020 0.382683 0.923880
vn 0.000020 0.382683 0.923880
vn 0.000020 0.382683 0.923880
vn 0.000048 0.923879 0.382684
vn 0.000048 0.923879 0.382684
vn 0.000048 0.923879 0.382684
vn 0.000048 0.923879 0.382684
vn 0.000048 0.923879 -0.382684
vn 0.000048 0.923879 -0.382684
vn 0.000048 0.923879 -0.382684
vn 0.000048 0.923879 -0.382684
vn 0.000019 0.382684 -0.923879
vn 0.000019 0.382684 -0.923879
vn 0.000019 0.382684 -0.923879
vn 0.000019 0.382684 -0.923879
vn -0.000021 -0.382683 -0.923880
vn -0.000021 -0.382683 -0.923880
vn -0.000021 -0.382683 -0.923880
vn -0.000021 -0.382683 -0.923880
vn -0.000048 -0.923880 -0.382683
vn -0.000048 -0.923880 -0.382683
vn -0.000048 -0.923880 -0.382683
vn -0.000048 -0.923880 -0.382683
vn -0.000048 -0.923880 0.382683
vn -0.000048 -0.923880 0.382683
vn -0.000048 -0.923880 0.382683
vn -0.000048 -0.923880 0.382683
vn 1.000000 0.000000 0.000000
vn 1.000000 0.000000 0.000000
vn 1.000000 0.000000 0.000000
vn 1.000000 0.000000 0.000000
vn 1.000000 0.000000 0.000000
vn 1.000000 0.000000 0.000000
vn 1.000000 0.000000 0.000000
vn 1.000000 0.000000 0.000000
vn 1.000000 0.000000 -0.000000
vn 1.000000 0.000000 -0.000000
vn 1.000000 0.000000 -0.000000
vn 1.000000 0.000000 -0.000000
vn 1.000000 0.000000 0.000000
vn 1.000000 0.000000 0.000000
vn 1.000000 0.000000 0.000000
vn 1.000000 0.000000 0.000000
vn 1.000000 0.000000 -0.000000
vn 1.000000 0.000000 -0.000000
vn 1.000000 0.000000 -0.000000
vn 1.000000 0.000000 -0.000000
vn 1.000000 0.000000 -0.000000
vn 1.000000 0.000000 -0.000000
vn 1.000000 0.000000 -0.000000
vn 1.000000 0.000000 -0.000000
vn 1.000000 0.000000 -0.000000
vn 1.000000 0.000000 -0.000000
vn 1.000000 0.000000 -0.000000
vn 1.000000 0.000000 -0.000000
vn 1.000000 0.000000 0.000000
vn 1.000000 0.000000 0.000000
vn 1.000000 0.000000 0.000000
vn 1.000000 0.000000 0.000000
vn -1.000000 -0.000000 -0.000000
vn -1.000000 -0.000000 -0.000000
vn -1.000000 -0.000000 -0.000000
vn -1.000000 -0.000000 -0.000000
vn -1.000000 0.000000 0.000000
vn -1.000000 0.000000 0.000000
vn -1.000000 0.000000 0.000000
vn -1.000000 0.000000 0.000000
vn -1.000000 -0.000000 0.000000
vn -1.000000 -0.000000 0.000000
vn -1.000000 -0.000000 0.000000
vn -1.000000 -0.000000 0.000000
vn -1.000000 -0.000000 0.000000
vn -1.000000 -0.000000 0.000000
vn -1.000000 -0.000000 0.000000
vn -1.000000 -0.000000 0.000000
vn -1.000000 -0.000000 -0.000000
vn -1.000000 -0.000000 -0.000000
vn -1.000000 -0.000000 -0.000000
vn -1.000000 -0.000000 -0.000000
vn -1.000000 -0.000000 -0.000000
vn -1.000000 -0.000000 -0.000000
vn -1.000000 -0.000000 -0.000000
vn -1.000000 -0.000000 -0.000000
vn -1.000000 0.000000 0.000000
vn -1.000000 0.000000 0.000000
vn -1.000000 0.000000 0.000000
vn -1.000000 0.000000 0.000000
vn -1.000000 -0.000000 0.000000
vn -1.000000 -0.000000 0.000000
vn -1.000000 -0.000000 0.000000
vn -1.000000 -0.000000 0.000000
vn -1.000000 0.000105 -0.000000
vn -1.000000 0.000105 -0.000000
vn -1.000000 0.000105 -0.000000
vn -1.000000 0.000105 -0.000000
vn -1.000000 0.000105 -0.000000
vn -1.000000 0.000105 -0.000000
vn -1.000000 0.000105 -0.000000
vn -1.000000 0.000105 -0.000000
vn -1.000000 0.000105 -0.000000
vn -1.000000 0.000105 -0.000000
vn -1.000000 0.000105 -0.000000
vn -1.000000 0.000105 -0.000000
vn -1.000000 0.000105 0.000000
vn -1.000000 0.000105 0.000000
vn -1.000000 0.000105 0.000000
vn -1.000000 0.000105 0.000000
vn -1.000000 0.000105 0.000000
vn -1.000000 0.000105 0.000000
vn -1.000000 0.000105 0.000000
vn -1.000000 0.000105 0.000000
vn -1.000000 0.000105 0.000000
vn -1.000000 0.000105 0.000000
vn -1.000000 0.000105 0.000000
vn -1.000000 0.000105 0.000000
vn -1.000000 0.000105 0.000000
vn -1.000000 0.000105 0.000000
vn -1.000000 0.000105 0.000000
vn -1.000000 0.000105 0.000000
vn -1.000000 0.000105 -0.000000
vn -1.000000 0.000105 -0.000000
vn -1.000000 0.000105 -0.000000
vn -1.000000 0.000105 -0.000000
vn 1.000000 -0.000105 -0.000000
vn 1.000000 -0.000105 -0.000000
vn 1.000000 -0.000105 -0.000000
vn 1.000000 -0.000105 -0.000000
vn 1.000000 -0.000105 -0.000000
vn 1.000000 -0.000105 -0.000000
vn 1.000000 -0.000105 -0.000000
vn 1.000000 -0.000105 -0.000000
vn 1.000000 -0.000105 -0.000000
vn 1.000000 -0.000105 -0.000000
vn 1.000000 -0.000105 -0.000000
vn 1.000000 -0.000105 -0.000000
vn 1.000000 -0.000105 0.000000
vn 1.000000 -0.000105 0.000000
vn 1.000000 -0.000105 0.000000
vn 1.000000 -0.000105 0.000000
vn 1.000000 -0.000105 -0.000000
vn 1.000000 -0.000105 -0.000000
vn 1.000000 -0.000105 -0.000000
vn 1.000000 -0.000105 -0.000000
vn 1.000000 -0.000105 0.000000
vn 1.000000 -0.000105 0.000000
vn 1.000000 -0.000105 0.000000
vn 1.000000 -0.000105 0.000000
vn 1.000000 -0.000105 0.000000
vn 1.000000 -0.000105 0.000000
vn 1.000000 -0.000105 0.000000
vn 1.000000 -0.000105 0.000000
vn 1.000000 -0.000105 0.000000
vn 1.000000 -0.000105 0.000000
vn 1.000000 -0.000105 0.000000
vn 1.000000 -0.000105 0.000000
vn -0.000021 -0.382683 -0.923880
vn -0.000021 -0.382683 -0.923880
vn -0.000021 -0.382683 -0.923880
vn -0.000021 -0.382683 -0.923880
vn 0.000021 0.382683 -0.923880
vn 0.000021 0.382683 -0.923880
vn 0.000021 0.382683 -0.923880
vn 0.000021 0.382683 -0.923880
vn 0.000050 0.923880 -0.382683
vn 0.000050 0.923880 -0.382683
vn 0.000050 0.923880 -0.382683
vn 0.000050 0.923880 -0.382683
vn 0.000050 0.923880 0.382683
vn 0.000050 0.923880 0.382683
vn 0.000050 0.923880 0.382683
vn 0.000050 0.923880 0.382683
vn 0.000021 0.382683 0.923880
vn 0.000021 0.382683 0.923880
vn 0.000021 0.382683 0.923880
vn 0.000021 0.382683 0.923880
vn -0.000020 -0.382683 0.923880
vn -0.000020 -0.382683 0.923880
vn -0.000020 -0.382683 0.923880
vn -0.000020 -0.382683 0.923880
vn -0.000049 -0.923880 0.382683
vn -0.000049 -0.923880 0.382683
vn -0.000049 -0.923880 0.382683
vn -0.000049 -0.923880 0.382683
vn -0.000049 -0.923880 -0.382683
vn -0.000049 -0.923880 -0.382683
vn -0.000049 -0.923880 -0.382683
vn -0.000049 -0.923880 -0.382683
vn 0.000050 0.923879 0.382684
vn 0.000050 0.923879 0.382684
vn 0.000050 0.923879 0.382684
vn 0.000050 0.923879 0.382684
vn 0.000019 0.382683 0.923880
vn 0.000019 0.382683 0.923880
vn 0.000019 0.382683 0.923880
vn 0.000019 0.382683 0.923880
vn -0.000020 -0.382683 0.923880
vn -0.000020 -0.382683 0.923880
vn -0.000020 -0.382683 0.923880
vn -0.000020 -0.382683 0.923880
vn -0.000049 -0.923880 0.382683
vn -0.000049 -0.923880 0.382683
vn -0.000049 -0.923880 0.382683
vn -0.000049 -0.923880 0.382683
vn -0.000049 -0.923879 -0.382684
vn -0.000049 -0.923879 -0.382684
vn -0.000049 -0.923879 -0.382684
vn -0.000049 -0.923879 -0.382684
vn -0.000021 -0.382683 -0.923880
vn -0.000021 -0.382683 -0.923880
vn -0.000021 -0.382683 -0.923880
vn -0.000021 -0.382683 -0.923880
vn 0.000021 0.382683 -0.923880
vn 0.000021 0.382683 -0.923880
vn 0.000021 0.382683 -0.923880
vn 0.000021 0.382683 -0.923880
vn 0.000050 0.923879 -0.382684
vn 0.000050 0.923879 -0.382684
vn 0.000050 0.923879 -0.382684
vn 0.000050 0.923879 -0.382684
vn -0.000048 -0.923880 0.382683
vn -0.000048 -0.923880 0.382683
vn -0.000048 -0.923880 0.382683
vn -0.000048 -0.923880 0.382683
vn -0.000020 -0.382683 0.923880
vn -0.000020 -0.382683 0.923880
vn -0.000020 -0.382683 0.923880
vn -0.000020 -0.382683 0.923880
vn 0.000020 0.382683 0.923879
vn 0.000020 0.382683 0.923879
vn 0.000020 0.382683 0.923879
vn 0.000020 0.382683 0.923879
vn 0.000048 0.923879 0.382684
vn 0.000048 0.923879 0.382684
vn 0.000048 0.923879 0.382684
vn 0.000048 0.923879 0.382684
vn 0.000048 0.923879 -0.382684
vn 0.000048 0.923879 -0.382684
vn 0.000048 0.923879 -0.382684
vn 0.000048 0.923879 -0.382684
vn 0.000020 0.382683 -0.923880
vn 0.000020 0.382683 -0.923880
vn 0.000020 0.382683 -0.923880
vn 0.000020 0.382683 -0.923880
vn -0.000020 -0.382683 -0.923880
vn -0.000020 -0.382683 -0.923880
vn -0.000020 -0.382683 -0.923880
vn -0.000020 -0.382683 -0.923880
vn -0.000048 -0.923880 -0.382683
vn -0.000048 -0.923880 -0.382683
vn -0.000048 -0.923880 -0.382683
vn -0.000048 -0.923880 -0.382683
vn 0.000020 0.382683 -0.923880
vn 0.000020 0.382683 -0.923880
vn 0.000020 0.382683 -0.923880
vn 0.000020 0.382683 -0.923880
vn -0.000020 -0.382683 -0.923880
vn -0.000020 -0.382683 -0.923880
vn -0.000020 -0.382683 -0.923880
vn -0.000020 -0.382683 -0.923880
vn -0.000048 -0.923879 -0.382684
vn -0.000048 -0.923879 -0.382684
vn -0.000048 -0.923879 -0.382684
vn -0.000048 -0.923879 -0.382684
vn -0.000048 -0.923879 0.382684
vn -0.000048 -0.923879 0.382684
vn -0.000048 -0.923879 0.382684
vn -0.000048 -0.923879 0.382684
vn -0.000019 -0.382684 0.923879
vn -0.000019 -0.382684 0.923879
vn -0.000019 -0.382684 0.923879
vn -0.000019 -0.382684 0.923879
vn 0.000020 0.382683 0.923880
vn 0.000020 0.382683 0.923880
vn 0.000020 0.382683 0.923880
vn 0.000020 0.382683 0.923880
vn 0.000048 0.923880 0.382683
vn 0.000048 0.923880 0.382683
vn 0.000048 0.923880 0.382683
vn 0.000048 0.923880 0.382683
vn 0.000048 0.923880 -0.382682
vn 0.000048 0.923880 -0.382682
vn 0.000048 0.923880 -0.382682
vn 0.000048 0.923880 -0.382682
vn 0.000000 0.000000 -1.000000
vn 0.000000 0.000000 -1.000000
vn 0.000000 0.000000 -1.000000
vn 0.000000 0.000000 -1.000000
vn -0.000001 0.000000 -1.000000
vn -0.000001 0.000000 -1.000000
vn -0.000001 0.000000 -1.000000
vn -0.000001 0.000000 -1.000000
vn 0.000000 0.000000 -1.000000
vn 0.000000 0.000000 -1.000000
vn 0.000000 0.000000 -1.000000
vn 0.000000 0.000000 -1.000000
vn -0.000000 0.000000 -1.000000
vn -0.000000 0.000000 -1.000000
vn -0.000000 0.000000 -1.000000
vn -0.000000 0.000000 -1.000000
vn 0.000000 1.000000 0.000000
vn 0.000000 1.000000 0.000000
vn 0.000000 1.000000 0.000000
vn 0.000000 1.000000 0.000000
vn 1.000000 0.000000 0.000000
vn 1.000000 0.000000 0.000000
vn 1.000000 0.000000 0.000000
vn 1.000000 0.000000 0.000000
vn 0.000000 -1.000000 -0.000000
vn 0.000000 -1.000000 -0.000000
vn 0.000000 -1.000000 -0.000000
vn 0.000000 -1.000000 -0.000000
vn -1.000000 -0.000000 0.000000
vn -1.000000 -0.000000 0.000000
vn -1.000000 -0.000000 0.000000
vn -1.000000 -0.000000 0.000000
usemtl MFCamera
s 1
f 4/4/4 1/1/1 2/2/2
f 2/2/2 3/3/3 4/4/4
f 8/8/8 5/5/5 6/6/6
f 6/6/6 7/7/7 8/8/8
f 51/32/32 50/9/9 85/10/10
f 51/32/32 85/10/10 86/11/11
f 51/32/32 86/11/11 87/12/12
f 51/32/32 87/12/12 88/13/13
f 51/32/32 88/13/13 63/14/14
f 51/32/32 63/14/14 62/15/15
f 51/32/32 62/15/15 92/16/16
f 51/32/32 92/16/16 91/17/17
f 51/32/32 91/17/17 90/18/18
f 51/32/32 90/18/18 89/19/19
f 51/32/32 89/19/19 53/20/20
f 51/32/32 53/20/20 56/21/21
f 51/32/32 56/21/21 69/22/22
f 51/32/32 69/22/22 70/23/23
f 51/32/32 70/23/23 71/24/24
f 51/32/32 71/24/24 72/25/25
f 51/32/32 72/25/25 59/26/26
f 51/32/32 59/26/26 58/27/27
f 51/32/32 58/27/27 76/28/28
f 51/32/32 76/28/28 75/29/29
f 51/32/32 75/29/29 74/30/30
f 74/30/30 73/31/31 51/32/32
f 55/56/56 54/33/33 93/34/34
f 55/56/56 93/34/34 94/35/35
f 55/56/56 94/35/35 95/36/36
f 55/56/56 95/36/36 96/37/37
f 55/56/56 96/37/37 61/38/38
f 55/56/56 61/38/38 64/39/39
f 55/56/56 64/39/39 84/40/40
f 55/56/56 84/40/40 83/41/41
f 55/56/56 83/41/41 82/42/42
f 55/56/56 82/42/42 81/43/43
f 55/56/56 81/43/43 49/44/44
f 55/56/56 49/44/44 52/45/45
f 55/56/56 52/45/45 77/46/46
f 55/56/56 77/46/46 78/47/47
f 55/56/56 78/47/47 79/48/48
f 55/56/56 79/48/48 80/49/49
f 55/56/56 80/49/49 57/50/50
f 55/56/56 57/50/50 60/51/51
f 55/56/56 60/51/51 68/52/52
f 55/56/56 68/52/52 67/53/53
f 55/56/56 67/53/53 66/54/54
f 66/54/54 65/55/55 55/56/56
f 12/60/60 9/57/57 10/58/58
f 10/58/58 11/59/59 12/60/60
f 16/64/64 13/61/61 14/62/62
f 14/62/62 15/63/63 16/64/64
f 7/68/68 17/65/65 21/66/66
f 21/66/66 8/67/67 7/68/68
f 17/72/72 18/69/69 22/70/70
f 22/70/70 21/71/71 17/72/72
f 18/76/76 19/73/73 23/74/74
f 23/74/74 22/75/75 18/76/76
f 19/80/80 20/77/77 24/78/78
f 24/78/78 23/79/79 19/80/80
f 20/84/84 12/81/81 11/82/82
f 11/82/82 24/83/83 20/84/84
f 3/88/88 25/85/85 29/86/86
f 29/86/86 4/87/87 3/88/88
f 25/92/92 26/89/89 30/90/90
f 30/90/90 29/91/91 25/92/92
f 26/96/96 27/93/93 31/94/94
f 31/94/94 30/95/95 26/96/96
f 27/100/100 28/97/97 32/98/98
f 32/98/98 31/99/99 27/100/100
f 28/104/104 10/101/101 9/102/102
f 9/102/102 32/103/103 28/104/104
f 1/108/108 33/105/105 37/106/106
f 37/106/106 2/107/107 1/108/108
f 33/112/112 34/109/109 38/110/110
f 38/110/110 37/111/111 33/112/112
f 34/116/116 35/113/113 39/114/114
f 39/114/114 38/115/115 34/116/116
f 35/120/120 36/117/117 40/118/118
f 40/118/118 39/119/119 35/120/120
f 36/124/124 16/121/121 15/122/122
f 15/122/122 40/123/123 36/124/124
f 5/128/128 41/125/125 45/126/126
f 45/126/126 6/127/127 5/128/128
f 41/132/132 42/129/129 46/130/130
f 46/130/130 45/131/131 41/132/132
f 42/136/136 43/133/133 47/134/134
f 47/134/134 46/135/135 42/136/136
f 43/140/140 44/137/137 48/138/138
f 48/138/138 47/139/139 43/140/140
f 44/144/144 14/141/141 13/142/142
f 13/142/142 48/143/143 44/144/144
f 50/148/148 2/145/145 37/146/146
f 37/146/146 85/147/147 50/148/148
f 85/152/152 37/149/149 38/150/150
f 38/150/150 86/151/151 85/152/152
f 86/156/156 38/153/153 39/154/154
f 39/154/154 87/155/155 86/156/156
f 87/160/160 39/157/157 40/158/158
f 40/158/158 88/159/159 87/160/160
f 88/164/164 40/161/161 15/162/162
f 15/162/162 63/163/163 88/164/164
f 63/168/168 15/165/165 14/166/166
f 14/166/166 62/167/167 63/168/168
f 62/172/172 14/169/169 44/170/170
f 44/170/170 92/171/171 62/172/172
f 92/176/176 44/173/173 43/174/174
f 43/174/174 91/175/175 92/176/176
f 91/180/180 43/177/177 42/178/178
f 42/178/178 90/179/179 91/180/180
f 90/184/184 42/181/181 41/182/182
f 41/182/182 89/183/183 90/184/184
f 89/188/188 41/185/185 5/186/186
f 5/186/186 53/187/187 89/188/188
f 53/192/192 5/189/189 8/190/190
f 8/190/190 56/191/191 53/192/192
f 56/196/196 8/193/193 21/194/194
f 21/194/194 69/195/195 56/196/196
f 69/200/200 21/197/197 22/198/198
f 22/198/198 70/199/199 69/200/200
f 70/204/204 22/201/201 23/202/202
f 23/202/202 71/203/203 70/204/204
f 71/208/208 23/205/205 24/206/206
f 24/206/206 72/207/207 71/208/208
f 72/212/212 24/209/209 11/210/210
f 11/210/210 59/211/211 72/212/212
f 59/216/216 11/213/213 10/214/214
f 10/214/214 58/215/215 59/216/216
f 58/220/220 10/217/217 28/218/218
f 28/218/218 76/219/219 58/220/220
f 76/224/224 28/221/221 27/222/222
f 27/222/222 75/223/223 76/224/224
f 75/228/228 27/225/225 26/226/226
f 26/226/226 74/227/227 75/228/228
f 74/232/232 26/229/229 25/230/230
f 25/230/230 73/231/231 74/232/232
f 73/236/236 25/233/233 3/234/234
f 3/234/234 51/235/235 73/236/236
f 51/240/240 3/237/237 2/238/238
f 2/238/238 50/239/239 51/240/240
f 54/244/244 6/241/241 45/242/242
f 45/242/242 93/243/243 54/244/244
f 93/248/248 45/245/245 46/246/246
f 46/246/246 94/247/247 93/248/248
f 94/252/252 46/249/249 47/250/250
f 47/250/250 95/251/251 94/252/252
f 95/256/256 47/253/253 48/254/254
f 48/254/254 96/255/255 95/256/256
f 96/260/260 48/257/257 13/258/258
f 13/258/258 61/259/259 96/260/260
f 61/264/264 13/261/261 16/262/262
f 16/262/262 64/263/263 61/264/264
f 64/268/268 16/265/265 36/266/266
f 36/266/266 84/267/267 64/268/268
f 84/272/272 36/269/269 35/270/270
f 35/270/270 83/271/271 84/272/272
f 83/276/276 35/273/273 34/274/274
f 34/274/274 82/275/275 83/276/276
f 82/280/280 34/277/277 33/278/278
f 33/278/278 81/279/279 82/280/280
f 81/284/284 33/281/281 1/282/282
f 1/282/282 49/283/283 81/284/284
f 49/288/288 1/285/285 4/286/286
f 4/286/286 52/287/287 49/288/288
f 52/292/292 4/289/289 29/290/290
f 29/290/290 77/291/291 52/292/292
f 77/296/296 29/293/293 30/294/294
f 30/294/294 78/295/295 77/296/296
f 78/300/300 30/297/297 31/298/298
f 31/298/298 79/299/299 78/300/300
f 79/304/304 31/301/301 32/302/302
f 32/302/302 80/303/303 79/304/304
f 80/308/308 32/305/305 9/306/306
f 9/306/306 57/307/307 80/308/308
f 57/312/312 9/309/309 12/310/310
f 12/310/310 60/311/311 57/312/312
f 60/316/316 12/313/313 20/314/314
f 20/314/314 68/315/315 60/316/316
f 68/320/320 20/317/317 19/318/318
f 19/318/318 67/319/319 68/320/320
f 67/324/324 19/321/321 18/322/322
f 18/322/322 66/323/323 67/324/324
f 66/328/328 18/325/325 17/326/326
f 17/326/326 65/327/327 66/328/328
f 65/332/332 17/329/329 7/330/330
f 7/330/330 55/331/331 65/332/332
f 55/336/336 7/333/333 6/334/334
f 6/334/334 54/335/335 55/336/336
s off
f 97/340/340 105/337/337 106/338/338
f 106/338/338 98/339/339 97/340/340
f 98/344/344 106/341/341 107/342/342
f 107/342/342 99/343/343 98/344/344
f 99/348/348 107/345/345 108/346/346
f 108/346/346 100/347/347 99/348/348
f 100/352/352 108/349/349 109/350/350
f 109/350/350 101/351/351 100/352/352
f 101/356/356 109/353/353 110/354/354
f 110/354/354 102/355/355 101/356/356
f 102/360/360 110/357/357 111/358/358
f 111/358/358 103/359/359 102/360/360
f 103/364/364 111/361/361 112/362/362
f 112/362/362 104/363/363 103/364/364
f 104/368/368 112/365/365 105/366/366
f 105/366/366 97/367/367 104/368/368
f 244/376/376 237/369/369 238/370/370
f 244/376/376 238/370/370 239/371/371
f 244/376/376 239/371/371 240/372/372
f 244/376/376 240/372/372 241/373/373
f 244/376/376 241/373/373 242/374/374
f 242/374/374 243/375/375 244/376/376
f 260/384/384 253/377/377 254/378/378
f 260/384/384 254/378/378 255/379/379
f 260/384/384 255/379/379 256/380/380
f 260/384/384 256/380/380 257/381/381
f 260/384/384 257/381/381 258/382/382
f 258/382/382 259/383/383 260/384/384
f 113/388/388 121/385/385 122/386/386
f 122/386/386 114/387/387 113/388/388
f 114/392/392 122/389/389 123/390/390
f 123/390/390 115/391/391 114/392/392
f 115/396/396 123/393/393 124/394/394
f 124/394/394 116/395/395 115/396/396
f 116/400/400 124/397/397 125/398/398
f 125/398/398 117/399/399 116/400/400
f 117/404/404 125/401/401 126/402/402
f 126/402/402 118/403/403 117/404/404
f 118/408/408 126/405/405 127/406/406
f 127/406/406 119/407/407 118/408/408
f 119/412/412 127/409/409 128/410/410
f 128/410/410 120/411/411 119/412/412
f 120/416/416 128/413/413 121/414/414
f 121/414/414 113/415/415 120/416/416
f 268/424/424 261/417/417 262/418/418
f 268/424/424 262/418/418 263/419/419
f 268/424/424 263/419/419 264/420/420
f 268/424/424 264/420/420 265/421/421
f 268/424/424 265/421/421 266/422/422
f 266/422/422 267/423/423 268/424/424
f 252/432/432 245/425/425 246/426/426
f 252/432/432 246/426/426 247/427/427
f 252/432/432 247/427/427 248/428/428
f 252/432/432 248/428/428 249/429/429
f 252/432/432 249/429/429 250/430/430
f 250/430/430 251/431/431 252/432/432
f 136/436/436 133/433/433 134/434/434
f 134/434/434 135/435/435 136/436/436
f 276/440/440 273/437/437 274/438/438
f 274/438/438 275/439/439 276/440/440
f 135/444/444 134/441/441 130/442/442
f 130/442/442 131/443/443 135/444/444
f 132/448/448 129/445/445 133/446/446
f 133/446/446 136/447/447 132/448/448
f 132/452/452 136/449/449 135/450/450
f 135/450/450 131/451/451 132/452/452
f 133/456/456 129/453/453 130/454/454
f 130/454/454 134/455/455 133/456/456
f 137/460/460 130/457/457 129/458/458
f 129/458/458 138/459/459 137/460/460
f 138/464/464 129/461/461 132/462/462
f 132/462/462 139/463/463 138/464/464
f 139/468/468 132/465/465 131/466/466
f 131/466/466 140/467/467 139/468/468
f 140/472/472 131/469/469 130/470/470
f 130/470/470 137/471/471 140/472/472
f 156/476/476 112/473/473 111/474/474
f 111/474/474 155/475/475 156/476/476
f 155/480/480 111/477/477 110/478/478
f 110/478/478 154/479/479 155/480/480
f 154/484/484 110/481/481 109/482/482
f 109/482/482 153/483/483 154/484/484
f 153/488/488 109/485/485 108/486/486
f 108/486/486 152/487/487 153/488/488
f 152/492/492 108/489/489 107/490/490
f 107/490/490 151/491/491 152/492/492
f 151/496/496 107/493/493 106/494/494
f 106/494/494 150/495/495 151/496/496
f 150/500/500 106/497/497 105/498/498
f 105/498/498 149/499/499 150/500/500
f 149/504/504 105/501/501 112/502/502
f 112/502/502 156/503/503 149/504/504
f 141/508/508 97/505/505 98/506/506
f 98/506/506 142/507/507 141/508/508
f 142/512/512 98/509/509 99/510/510
f 99/510/510 143/511/511 142/512/512
f 143/516/516 99/513/513 100/514/514
f 100/514/514 144/515/515 143/516/516
f 144/520/520 100/517/517 101/518/518
f 101/518/518 145/519/519 144/520/520
f 145/524/524 101/521/521 102/522/522
f 102/522/522 146/523/523 145/524/524
f 146/528/528 102/525/525 103/526/526
f 103/526/526 147/527/527 146/528/528
f 147/532/532 103/529/529 104/530/530
f 104/530/530 148/531/531 147/532/532
f 148/536/536 104/533/533 97/534/534
f 97/534/534 141/535/535 148/536/536
f 172/540/540 128/537/537 127/538/538
f 127/538/538 171/539/539 172/540/540
f 171/544/544 127/541/541 126/542/542
f 126/542/542 170/543/543 171/544/544
f 170/548/548 126/545/545 125/546/546
f 125/546/546 169/547/547 170/548/548
f 169/552/552 125/549/549 124/550/550
f 124/550/550 168/551/551 169/552/552
f 168/556/556 124/553/553 123/554/554
f 123/554/554 167/555/555 168/556/556
f 167/560/560 123/557/557 122/558/558
f 122/558/558 166/559/559 167/560/560
f 166/564/564 122/561/561 121/562/562
f 121/562/562 165/563/563 166/564/564
f 165/568/568 121/565/565 128/566/566
f 128/566/566 172/567/567 165/568/568
f 157/572/572 113/569/569 114/570/570
f 114/570/570 158/571/571 157/572/572
f 158/576/576 114/573/573 115/574/574
f 115/574/574 159/575/575 158/576/576
f 159/580/580 115/577/577 116/578/578
f 116/578/578 160/579/579 159/580/580
f 160/584/584 116/581/581 117/582/582
f 117/582/582 161/583/583 160/584/584
f 161/588/588 117/585/585 118/586/586
f 118/586/586 162/587/587 161/588/588
f 162/592/592 118/589/589 119/590/590
f 119/590/590 163/591/591 162/592/592
f 163/596/596 119/593/593 120/594/594
f 120/594/594 164/595/595 163/596/596
f 164/600/600 120/597/597 113/598/598
f 113/598/598 157/599/599 164/600/600
f 173/604/604 156/601/601 155/602/602
f 155/602/602 174/603/603 173/604/604
f 174/608/608 155/605/605 154/606/606
f 154/606/606 175/607/607 174/608/608
f 175/612/612 154/609/609 153/610/610
f 153/610/610 176/611/611 175/612/612
f 176/616/616 153/613/613 152/614/614
f 152/614/614 177/615/615 176/616/616
f 177/620/620 152/617/617 151/618/618
f 151/618/618 178/619/619 177/620/620
f 178/624/624 151/621/621 150/622/622
f 150/622/622 179/623/623 178/624/624
f 179/628/628 150/625/625 149/626/626
f 149/626/626 180/627/627 179/628/628
f 180/632/632 149/629/629 156/630/630
f 156/630/630 173/631/631 180/632/632
f 181/636/636 157/633/633 158/634/634
f 158/634/634 182/635/635 181/636/636
f 182/640/640 158/637/637 159/638/638
f 159/638/638 183/639/639 182/640/640
f 183/644/644 159/641/641 160/642/642
f 160/642/642 184/643/643 183/644/644
f 184/648/648 160/645/645 161/646/646
f 161/646/646 185/647/647 184/648/648
f 185/652/652 161/649/649 162/650/650
f 162/650/650 186/651/651 185/652/652
f 186/656/656 162/653/653 163/654/654
f 163/654/654 187/655/655 186/656/656
f 187/660/660 163/657/657 164/658/658
f 164/658/658 188/659/659 187/660/660
f 188/664/664 164/661/661 157/662/662
f 157/662/662 181/663/663 188/664/664
f 189/668/668 141/665/665 142/666/666
f 142/666/666 190/667/667 189/668/668
f 190/672/672 142/669/669 143/670/670
f 143/670/670 191/671/671 190/672/672
f 191/676/676 143/673/673 144/674/674
f 144/674/674 192/675/675 191/676/676
f 192/680/680 144/677/677 145/678/678
f 145/678/678 193/679/679 192/680/680
f 193/684/684 145/681/681 146/682/682
f 146/682/682 194/683/683 193/684/684
f 194/688/688 146/685/685 147/686/686
f 147/686/686 195/687/687 194/688/688
f 195/692/692 147/689/689 148/690/690
f 148/690/690 196/691/691 195/692/692
f 196/696/696 148/693/693 141/694/694
f 141/694/694 189/695/695 196/696/696
f 197/700/700 172/697/697 171/698/698
f 171/698/698 198/699/699 197/700/700
f 198/704/704 171/701/701 170/702/702
f 170/702/702 199/703/703 198/704/704
f 199/708/708 170/705/705 169/706/706
f 169/706/706 200/707/707 199/708/708
f 200/712/712 169/709/709 168/710/710
f 168/710/710 201/711/711 200/712/712
f 201/716/716 168/713/713 167/714/714
f 167/714/714 202/715/715 201/716/716
f 202/720/720 167/717/717 166/718/718
f 166/718/718 203/719/719 202/720/720
f 203/724/724 166/721/721 165/722/722
f 165/722/722 204/723/723 203/724/724
f 204/728/728 165/725/725 172/726/726
f 172/726/726 197/727/727 204/728/728
f 205/732/732 173/729/729 174/730/730
f 174/730/730 206/731/731 205/732/732
f 206/736/736 174/733/733 175/734/734
f 175/734/734 207/735/735 206/736/736
f 207/740/740 175/737/737 176/738/738
f 176/738/738 208/739/739 207/740/740
f 208/744/744 176/741/741 177/742/742
f 177/742/742 209/743/743 208/744/744
f 209/748/748 177/745/745 178/746/746
f 178/746/746 210/747/747 209/748/748
f 210/752/752 178/749/749 179/750/750
f 179/750/750 211/751/751 210/752/752
f 211/756/756 179/753/753 180/754/754
f 180/754/754 212/755/755 211/756/756
f 212/760/760 180/757/757 173/758/758
f 173/758/758 205/759/759 212/760/760
f 221/764/764 189/761/761 190/762/762
f 190/762/762 222/763/763 221/764/764
f 222/768/768 190/765/765 191/766/766
f 191/766/766 223/767/767 222/768/768
f 223/772/772 191/769/769 192/770/770
f 192/770/770 224/771/771 223/772/772
f 224/776/776 192/773/773 193/774/774
f 193/774/774 225/775/775 224/776/776
f 225/780/780 193/777/777 194/778/778
f 194/778/778 226/779/779 225/780/780
f 226/784/784 194/781/781 195/782/782
f 195/782/782 227/783/783 226/784/784
f 227/788/788 195/785/785 196/786/786
f 196/786/786 228/787/787 227/788/788
f 228/792/792 196/789/789 189/790/790
f 189/790/790 221/791/791 228/792/792
f 229/796/796 197/793/793 198/794/794
f 198/794/794 230/795/795 229/796/796
f 230/800/800 198/797/797 199/798/798
f 199/798/798 231/799/799 230/800/800
f 231/804/804 199/801/801 200/802/802
f 200/802/802 232/803/803 231/804/804
f 232/808/808 200/805/805 201/806/806
f 201/806/806 233/807/807 232/808/808
f 233/812/812 201/809/809 202/810/810
f 202/810/810 234/811/811 233/812/812
f 234/816/816 202/813/813 203/814/814
f 203/814/814 235/815/815 234/816/816
f 235/820/820 203/817/817 204/818/818
f 204/818/818 236/819/819 235/820/820
f 236/824/824 204/821/821 197/822/822
f 197/822/822 229/823/823 236/824/824
f 213/828/828 181/825/825 182/826/826
f 182/826/826 214/827/827 213/828/828
f 214/832/832 182/829/829 183/830/830
f 183/830/830 215/831/831 214/832/832
f 215/836/836 183/833/833 184/834/834
f 184/834/834 216/835/835 215/836/836
f 216/840/840 184/837/837 185/838/838
f 185/838/838 217/839/839 216/840/840
f 217/844/844 185/841/841 186/842/842
f 186/842/842 218/843/843 217/844/844
f 218/848/848 186/845/845 187/846/846
f 187/846/846 219/847/847 218/848/848
f 219/852/852 187/849/849 188/850/850
f 188/850/850 220/851/851 219/852/852
f 220/856/856 188/853/853 181/854/854
f 181/854/854 213/855/855 220/856/856
f 237/860/860 205/857/857 206/858/858
f 206/858/858 238/859/859 237/860/860
f 238/864/864 206/861/861 207/862/862
f 207/862/862 239/863/863 238/864/864
f 239/868/868 207/865/865 208/866/866
f 208/866/866 240/867/867 239/868/868
f 240/872/872 208/869/869 209/870/870
f 209/870/870 241/871/871 240/872/872
f 241/876/876 209/873/873 210/874/874
f 210/874/874 242/875/875 241/876/876
f 242/880/880 210/877/877 211/878/878
f 211/878/878 243/879/879 242/880/880
f 243/884/884 211/881/881 212/882/882
f 212/882/882 244/883/883 243/884/884
f 244/888/888 212/885/885 205/886/886
f 205/886/886 237/887/887 244/888/888
f 245/892/892 213/889/889 214/890/890
f 214/890/890 246/891/891 245/892/892
f 246/896/896 214/893/893 215/894/894
f 215/894/894 247/895/895 246/896/896
f 247/900/900 215/897/897 216/898/898
f 216/898/898 248/899/899 247/900/900
f 248/904/904 216/901/901 217/902/902
f 217/902/902 249/903/903 248/904/904
f 249/908/908 217/905/905 218/906/906
f 218/906/906 250/907/907 249/908/908
f 250/912/912 218/909/909 219/910/910
f 219/910/910 251/911/911 250/912/912
f 251/916/916 219/913/913 220/914/914
f 220/914/914 252/915/915 251/916/916
f 252/920/920 220/917/917 213/918/918
f 213/918/918 245/919/919 252/920/920
f 253/924/924 221/921/921 222/922/922
f 222/922/922 254/923/923 253/924/924
f 254/928/928 222/925/925 223/926/926
f 223/926/926 255/927/927 254/928/928
f 255/932/932 223/929/929 224/930/930
f 224/930/930 256/931/931 255/932/932
f 256/936/936 224/933/933 225/934/934
f 225/934/934 257/935/935 256/936/936
f 257/940/940 225/937/937 226/938/938
f 226/938/938 258/939/939 257/940/940
f 258/944/944 226/941/941 227/942/942
f 227/942/942 259/943/943 258/944/944
f 259/948/948 227/945/945 228/946/946
f 228/946/946 260/947/947 259/948/948
f 260/952/952 228/949/949 221/950/950
f 221/950/950 253/951/951 260/952/952
f 261/956/956 229/953/953 230/954/954
f 230/954/954 262/955/955 261/956/956
f 262/960/960 230/957/957 231/958/958
f 231/958/958 263/959/959 262/960/960
f 263/964/964 231/961/961 232/962/962
f 232/962/962 264/963/963 263/964/964
f 264/968/968 232/965/965 233/966/966
f 233/966/966 265/967/967 264/968/968
f 265/972/972 233/969/969 234/970/970
f 234/970/970 266/971/971 265/972/972
f 266/976/976 234/973/973 235/974/974
f 235/974/974 267/975/975 266/976/976
f 267/980/980 235/977/977 236/978/978
f 236/978/978 268/979/979 267/980/980
f 268/984/984 236/981/981 229/982/982
f 229/982/982 261/983/983 268/984/984
f 269/988/988 137/985/985 138/986/986
f 138/986/986 270/987/987 269/988/988
f 270/992/992 138/989/989 139/990/990
f 139/990/990 271/991/991 270/992/992
f 271/996/996 139/993/993 140/994/994
f 140/994/994 272/995/995 271/996/996
f 272/1000/1000 140/997/997 137/998/998
f 137/998/998 269/999/999 272/1000/1000
f 273/1004/1004 269/1001/1001 270/1002/1002
f 270/1002/1002 274/1003/1003 273/1004/1004
f 274/1008/1008 270/1005/1005 271/1006/1006
f 271/1006/1006 275/1007/1007 274/1008/1008
f 275/1012/1012 271/1009/1009 272/1010/1010
f 272/1010/1010 276/1011/1011 275/1012/1012
f 276/1016/1016 272/1013/1013 269/1014/1014
f 269/1014/1014 273/1015/1015 276/1016/1016
